<svg xmlns="http://www.w3.org/2000/svg" width="18" height="18" viewBox="0 0 18 18">
    <g fill="none" fill-rule="evenodd" stroke-linecap="round" stroke-linejoin="round">
        <g stroke="#0B0830" stroke-width="1.4">
            <g>
                <g>
                    <g>
                        <path d="M12.966 13.623v1.097c0 .503-.497.914-1.104.914H1.6c-.607 0-1.103-.411-1.103-.914V3.657c0-.503.496-.914 1.103-.914h1.324" transform="translate(-1085 -1825) translate(0 1454) translate(848 352) translate(238 20)"/>
                        <path d="M15.724 2.651v9.6c0 .503-.496.915-1.103.915H4.359c-.607 0-1.104-.412-1.104-.915V1.19c0-.503.497-.915 1.104-.915H14.62c.607 0 1.103.412 1.103.915V2.65zM5.517 4.114L8.828 4.114M5.517 6.857L8.828 6.857M5.517 9.6L8.828 9.6M9.931 4.114L13.241 4.114M9.931 6.857L13.241 6.857M9.931 9.6L13.241 9.6" transform="translate(-1085 -1825) translate(0 1454) translate(848 352) translate(238 20)"/>
                    </g>
                </g>
            </g>
        </g>
    </g>
</svg>
