<svg xmlns="http://www.w3.org/2000/svg" width="155" height="214" viewBox="0 0 155 214">
    <defs>
        <linearGradient id="2fxfia2pua" x1="25.182%" x2="80.775%" y1="37.564%" y2="65.461%">
            <stop offset="0%" stop-color="#F6AB6E"/>
            <stop offset="100%" stop-color="#FFBFB9"/>
        </linearGradient>
        <linearGradient id="j5bcfyyg6b" x1="50%" x2="50%" y1="0%" y2="100%">
            <stop offset="0%" stop-color="#FFF"/>
            <stop offset="100%" stop-color="#CFD4F8"/>
        </linearGradient>
        <linearGradient id="3twrot3u8c" x1=".117%" x2="100.009%" y1="50.023%" y2="50.023%">
            <stop offset="0%" stop-color="#E3E7FF"/>
            <stop offset="21%" stop-color="#E6E3F8"/>
            <stop offset="52%" stop-color="#EDD7E6"/>
            <stop offset="88%" stop-color="#FAC3C7"/>
            <stop offset="100%" stop-color="#FBB"/>
        </linearGradient>
        <linearGradient id="cc4aj9tufd" x1=".022%" x2="100%" y1="50.01%" y2="50.01%">
            <stop offset="0%" stop-color="#E3E7FF"/>
            <stop offset="21%" stop-color="#E6E3F8"/>
            <stop offset="52%" stop-color="#EDD7E6"/>
            <stop offset="88%" stop-color="#FAC3C7"/>
            <stop offset="100%" stop-color="#FBB"/>
        </linearGradient>
        <linearGradient id="5plheknype" x1="0%" x2="100%" y1="50.014%" y2="50.014%">
            <stop offset="0%" stop-color="#E3E7FF"/>
            <stop offset="21%" stop-color="#E6E3F8"/>
            <stop offset="52%" stop-color="#EDD7E6"/>
            <stop offset="88%" stop-color="#FAC3C7"/>
            <stop offset="100%" stop-color="#FBB"/>
        </linearGradient>
        <linearGradient id="c0t1h8ojrf" x1=".02%" x2="100.019%" y1="50.004%" y2="50.004%">
            <stop offset="0%" stop-color="#E3E7FF"/>
            <stop offset="21%" stop-color="#E6E3F8"/>
            <stop offset="52%" stop-color="#EDD7E6"/>
            <stop offset="88%" stop-color="#FAC3C7"/>
            <stop offset="100%" stop-color="#FBB"/>
        </linearGradient>
        <linearGradient id="68r21dml0g" x1="-.018%" x2="100.022%" y1="49.962%" y2="49.962%">
            <stop offset="0%" stop-color="#D4436C"/>
            <stop offset="92%" stop-color="#FF5977"/>
            <stop offset="100%" stop-color="#FF5182"/>
        </linearGradient>
    </defs>
    <g fill="none" fill-rule="evenodd">
        <g>
            <g>
                <g>
                    <g>
                        <path fill="#FFF" d="M109.21.788c3.172-1.831 5.759-.364 5.766 3.298l.34 119.291c-.214 4.047-2.343 7.748-5.73 9.957L6.106 193.285c-3.18 1.839-5.76.363-5.767-3.298L0 70.695c.214-4.044 2.344-7.742 5.729-9.949L109.209.788z" opacity=".1" transform="translate(-1121 -6549) translate(0 6215) translate(1054 232) translate(67 102)"/>
                        <path fill="#FFF" d="M122.045 8.327c3.172-1.839 5.775-.363 5.775 3.275l.339 119.284c-.207 4.055-2.337 7.765-5.729 9.98L18.934 200.8c-3.172 1.846-5.752.371-5.767-3.29l-.339-119.292c.214-4.049 2.346-7.75 5.737-9.957l103.48-59.935z" opacity=".2" transform="translate(-1121 -6549) translate(0 6215) translate(1054 232) translate(67 102)"/>
                        <g fill="url(#2fxfia2pua)" transform="translate(-1121 -6549) translate(0 6215) translate(1054 232) translate(67 102) translate(55.894 81.936)">
                            <path d="M61.492.648c7.7-4.457 20.605 15.704 28.305 11.24V24.91L0 76.936v-7.724c7.7-4.457 7.7-19.775 15.4-24.233 7.7-4.457 7.7-.332 15.4-4.789s7.7-18.423 15.4-22.88C53.9 12.853 53.784 5.113 61.492.648z"/>
                        </g>
                        <path fill="url(#j5bcfyyg6b)" d="M115.677 89.976c3.742-2.163 3.773 6.751 7.515 4.588 3.743-2.162 3.773 7.841 7.516 5.67 3.742-2.17 3.765 5.408 7.507 3.23 3.742-2.18 3.696-18.54 7.446-20.68l.07 24.07-89.837 52.033v-11.586c3.742-2.163 3.742-1.94 7.485-4.102 3.742-2.163 3.734-5.176 7.476-7.346 3.743-2.171 3.704-16.995 7.439-19.15 3.734-2.155 3.75-2.317 7.492-4.488 3.742-2.17 3.727-6.38 7.469-8.55 3.742-2.172 3.796 17.063 7.538 14.892 3.742-2.17 3.742-3.824 7.484-5.986 3.743-2.163 3.666-20.424 7.4-22.595z" transform="translate(-1121 -6549) translate(0 6215) translate(1054 232) translate(67 102)"/>
                        <g transform="translate(-1121 -6549) translate(0 6215) translate(1054 232) translate(67 102) translate(110 127)">
                            <ellipse cx="26.885" cy="79.121" fill="#000053" opacity=".139" rx="13.552" ry="7.841" transform="rotate(-.16 26.885 79.12)"/>
                            <path fill="#000" d="M37.226 77.214s.398 1.563-.949 1.877c-1.208.277-2.165-1.434-3.554-3.036-1.62-1.864-.136-3.484 1.437-1.701.628.715 1.676.938 3.066 2.86zM22.756 80.484s.604 1.596-.689 2.073c-1.154.423-1.981-.323-3.926-.214-2.235.127-3.534-1.874-1.556-2.019 1.384-.102 3.53-.187 3.53-.187l2.64.347z"/>
                            <path fill="#0B0830" d="M30.578 37.165c.604 3.319 1.16 9.733 1.713 17.107.142 1.895 3.204 6.393 3.624 9.256.42 2.864 1.296 13.686 1.296 13.686s-1.375 1.207-2.546-.317c0 0-3.06-12.56-4.45-14.382-1.389-1.823-4.59-9.809-5.807-13.37 0 0-2.347 9.116-2.172 11.285.175 2.17 1.208 4.254 1.565 7.467.356 3.213-1.045 12.587-1.045 12.587s-1.356 1.207-2.894-.365c0 0-.842-13.878-1.712-16.292-.87-2.414-2.954-16.841-1.879-23.18 7.213-2.007 9.127-1.575 14.307-3.482z"/>
                            <path fill="#FFF" d="M45 9.7L38.739 21.108 31.931 17.693 38.041 6.279 39.736 7.112 42.979 8.705z"/>
                            <path fill="#0246AF" d="M42.979 8.705L42.179 10.156 38.965 8.545 39.736 7.112z"/>
                            <path fill="#0246AF" d="M39.58 8.661L39.881 8.662 39.883 13.022 39.581 13.022z" transform="rotate(-64.2 39.731 10.842)"/>
                            <path fill="#0246AF" d="M39.072 9.628L39.374 9.628 39.375 13.989 39.074 13.989z" transform="rotate(-64.21 39.224 11.808)"/>
                            <path fill="#0246AF" d="M38.565 10.592L38.866 10.592 38.868 14.953 38.566 14.952z" transform="rotate(-64.21 38.716 12.772)"/>
                            <path fill="#0246AF" d="M38.053 11.557L38.355 11.558 38.357 15.918 38.055 15.918z" transform="rotate(-64.21 38.205 13.738)"/>
                            <path fill="#0246AF" d="M37.543 12.517L37.845 12.517 37.847 16.878 37.545 16.877z" transform="rotate(-64.21 37.695 14.697)"/>
                            <path fill="url(#3twrot3u8c)" d="M42.073 15.032c-.47.494-1.069 2.335-1.812 1.454-.353-.423-.196 1.623-.26 1.943-.063.32-5.436 4.652-5.436 4.655-.819-1.617-2.193-4.978-2.193-4.978l-2.932 1.693s2.518 5.237 3.28 6.103c.037.04.077.078.12.112l.055.036.081.057c2.537 1.696 7.741-6.939 8.076-7.183.336-.245.765-1.283.925-1.862.16-.58.743-2.71.096-2.03z"/>
                            <path fill="#D4436C" d="M29.47 12.886s2.34 2.031 4.862 7.76c0 0-2.651 2.764-5.191 1.937-.799-1.997-1.47-4.042-2.009-6.124-.767-3.135 2.338-3.573 2.338-3.573z"/>
                            <path fill="#D4436C" d="M16.271 40.638s10.873 3.922 14.914-2.836c0 0-1.963-7.748-1.616-10.66.278-2.32 2.398-13.501-.643-14.606C25.803 11.4 18.388 15.08 17.05 18.2c-.863 2.009.145 7.19.145 13.064 0 3.264-1.767 6.38-.924 9.374z"/>
                            <path fill="url(#cc4aj9tufd)" d="M18.01 24.164S13.318 29.39 12 29.37c-1.911-.03-8.789-8.988-9.785-10.355 0 0-2.6-1.508-1.96-2.788.64-1.279-.553-2.603-.182-2.793.372-.19.51.334.855 1.004.302.567.604.98.988.905.383-.075.906.064.996.365.091.302.67 2.155.67 2.155s7.277 7.274 8.107 6.981c.93-.329 3.749-3.729 3.749-3.729l2.573 3.05z"/>
                            <path fill="#D4436C" d="M17.32 17.693s-3.042 3.421-4.978 5.593c0 0 2.398 4.351 4.273 4.87 0 0 2.927-3.75 4.316-5.226 1.39-1.475-.691-6.74-3.612-5.237z"/>
                            <path fill="url(#5plheknype)" d="M21.916 12.168s.072 1.59-.2 1.925c0 0 3.374 1.095 4.607-.081 0 0 .238-2.716.564-3.46l-4.971 1.616z"/>
                            <path fill="url(#c0t1h8ojrf)" d="M27.03 10.253c.15-.574 2.364-4.547 0-6.617-2.366-2.07-6.186-2.184-7.425-.793-1.238 1.39-1.265 2.314-1.066 3.059.2.745.025 3.684.11 4.338.084.655.905 2.556.905 2.556 1.005.379 2.128.29 3.06-.244 0 0 4.071-.981 4.415-2.3z"/>
                            <path fill="url(#68r21dml0g)" d="M21.955 8.635s-.329-1.258.701-1.4c1.03-.141 1.208.842 1.09 1.355-.117.513-.52 1.509-.84 1.741 0 0 1.209 1.246 1.118 1.874 0 0 1.87.832 2.779-.025.456-1.783 4.551-4.79 1.733-8.812 0 0 0-3.069-3.769-3.365-.604-.045-2.718.372-4.624.185-2.416-.236-1.697 2.893-1.009 3.249.752.386 2.7-.16 3.196.905.302.652-.224.905-.96 1.68-.131.848-.159 1.708-.082 2.562.16.127.429.054.667.051z"/>
                        </g>
                        <path fill="#FFF" d="M96.304 146.536c1.54-.896 2.787-.178 2.795 1.591-.11 1.961-1.141 3.753-2.78 4.828l-37.968 21.984c-1.54.896-2.788.178-2.788-1.591.098-1.96 1.13-3.754 2.772-4.82l37.969-21.992zM96.773 56.916c1.54-.896 2.788-.178 2.796 1.591-.11 1.961-1.141 3.754-2.78 4.828L58.82 85.32c-1.54.896-2.787.177-2.787-1.592.101-1.959 1.132-3.751 2.772-4.82l37.968-21.992zM84.469 167.755c1.54-.888 2.787-.177 2.787 1.6-.1 1.959-1.13 3.752-2.772 4.82L58.52 189.206c-1.54.888-2.787.177-2.795-1.6.11-1.956 1.138-3.745 2.772-4.82l25.972-15.032z" transform="translate(-1121 -6549) translate(0 6215) translate(1054 232) translate(67 102)"/>
                    </g>
                </g>
            </g>
        </g>
    </g>
</svg>