<svg xmlns="http://www.w3.org/2000/svg" width="154" height="211" viewBox="0 0 154 211">
    <defs>
        <linearGradient id="np2xvj721a" x1="36.962%" x2="55.787%" y1="0%" y2="83.006%">
            <stop offset="0%" stop-color="#FFF"/>
            <stop offset="100%" stop-color="#D8CEFF"/>
        </linearGradient>
        <linearGradient id="3feg50xo1b" x1="36.959%" x2="55.788%" y1="0%" y2="83.006%">
            <stop offset="0%" stop-color="#FFF"/>
            <stop offset="100%" stop-color="#D8CEFF"/>
        </linearGradient>
        <linearGradient id="h1xnkacodc" x1="36.978%" x2="55.78%" y1="0%" y2="83.006%">
            <stop offset="0%" stop-color="#FFF"/>
            <stop offset="100%" stop-color="#D8CEFF"/>
        </linearGradient>
        <linearGradient id="534dq7nlad" x1=".055%" x2="100.058%" y1="50.055%" y2="50.055%">
            <stop offset="0%" stop-color="#E3E7FF"/>
            <stop offset="21%" stop-color="#E6E3F8"/>
            <stop offset="52%" stop-color="#EDD7E6"/>
            <stop offset="88%" stop-color="#FAC3C7"/>
            <stop offset="100%" stop-color="#FBB"/>
        </linearGradient>
        <linearGradient id="vv15zzrpxe" x1="-.029%" x2="100.049%" y1="49.991%" y2="49.991%">
            <stop offset="0%" stop-color="#FFF"/>
            <stop offset="100%" stop-color="#DBE2FD"/>
        </linearGradient>
        <linearGradient id="xdmlacg3uf" x1="-.012%" x2="100.2%" y1="50.005%" y2="50.005%">
            <stop offset="0%" stop-color="#FFF"/>
            <stop offset="100%" stop-color="#DBE2FD"/>
        </linearGradient>
        <linearGradient id="4hhfuxc5zg" x1="0%" x2="99.989%" y1="50.056%" y2="50.056%">
            <stop offset="0%" stop-color="#E3E7FF"/>
            <stop offset="21%" stop-color="#E6E3F8"/>
            <stop offset="52%" stop-color="#EDD7E6"/>
            <stop offset="88%" stop-color="#FAC3C7"/>
            <stop offset="100%" stop-color="#FBB"/>
        </linearGradient>
        <linearGradient id="ef8chp9pph" x1=".049%" x2="100%" y1="49.996%" y2="49.996%">
            <stop offset="0%" stop-color="#E3E7FF"/>
            <stop offset="21%" stop-color="#E6E3F8"/>
            <stop offset="52%" stop-color="#EDD7E6"/>
            <stop offset="88%" stop-color="#FAC3C7"/>
            <stop offset="100%" stop-color="#FBB"/>
        </linearGradient>
        <linearGradient id="uft5i2pdsi" x1="-.018%" x2="100.022%" y1="49.962%" y2="49.962%">
            <stop offset="0%" stop-color="#D4436C"/>
            <stop offset="92%" stop-color="#FF5977"/>
            <stop offset="100%" stop-color="#FF5182"/>
        </linearGradient>
    </defs>
    <g fill="none" fill-rule="evenodd">
        <g>
            <g>
                <g>
                    <g>
                        <g>
                            <path fill="#FFF" d="M107.076.764c3.119-1.774 5.648-.36 5.658 3.223l.33 116.555c0 3.578-2.5 7.931-5.618 9.73L5.983 188.832c-3.114 1.799-5.643.355-5.653-3.224L0 69.058c0-3.577 2.5-7.93 5.613-9.73L107.076.765z" opacity=".1" transform="translate(-763 -6552) translate(0 6215) translate(697 232) translate(66 105)"/>
                            <path fill="#FFF" d="M119.656 8.11c3.11-1.794 5.643-.355 5.653 3.223l.33 116.55c0 3.578-2.499 7.936-5.613 9.73l-101.463 58.56c-3.119 1.8-5.648.36-5.658-3.218L12.575 76.4c0-3.578 2.5-7.931 5.618-9.73L119.656 8.11z" opacity=".2" transform="translate(-763 -6552) translate(0 6215) translate(697 232) translate(66 105)"/>
                            <path fill="url(#np2xvj721a)" d="M123.885 67.864c-.954.62-1.555 1.658-1.615 2.794l.135 48.11c0 1 .735 1.44 1.625.925l23.831-13.758c.952-.62 1.551-1.655 1.615-2.789l-.135-48.115c0-1-.735-1.44-1.625-.92l-23.831 13.753z" transform="translate(-763 -6552) translate(0 6215) translate(697 232) translate(66 105)"/>
                            <path fill="#0B0830" d="M125.774 114.555c-.612.396-.997 1.061-1.034 1.79 0 .659.47.924 1.04.594l7.591-4.378c.612-.398.997-1.065 1.035-1.794 0-.66-.47-.924-1.04-.595l-7.592 4.383zM125.804 110.877c-.612.398-.996 1.065-1.034 1.794 0 .655.47.925 1.04.59l15.404-8.89c.612-.397.998-1.062 1.04-1.79 0-.66-.47-.924-1.045-.594l-15.405 8.89zM125.804 69.034c-.611.399-.995 1.065-1.034 1.794 0 .654.47.924 1.04.594l15.404-8.895c.612-.396.998-1.06 1.04-1.789 0-.66-.47-.925-1.045-.595l-15.405 8.89z" opacity=".119" transform="translate(-763 -6552) translate(0 6215) translate(697 232) translate(66 105)"/>
                            <path fill="#0246AF" d="M133.956 73.222L133.956 73.441 133.956 73.222z" transform="translate(-763 -6552) translate(0 6215) translate(697 232) translate(66 105)"/>
                            <path fill="url(#3feg50xo1b)" d="M78.057 81.337c-1.474.955-2.402 2.556-2.5 4.308l.22 74.262c0 1.579 1.125 2.219 2.5 1.424l36.771-21.229c1.472-.954 2.4-2.552 2.5-4.303l-.21-74.241c0-1.59-1.125-2.22-2.5-1.425L78.057 81.337z" transform="translate(-763 -6552) translate(0 6215) translate(697 232) translate(66 105)"/>
                            <path fill="#0B0830" d="M84.85 149.647c-.77.496-1.253 1.33-1.3 2.244 0 .824.584 1.16 1.304.745l9.497-5.498c.768-.498 1.251-1.334 1.3-2.248 0-.82-.586-1.155-1.305-.74l-9.497 5.497zM84.844 144.715c-.767.496-1.248 1.331-1.294 2.243 0 .825.584 1.16 1.304.745l19.303-11.144c.766-.499 1.249-1.332 1.3-2.244 0-.825-.59-1.16-1.305-.745l-19.308 11.145zM84.844 84.47c-.767.5-1.248 1.336-1.294 2.25 0 .82.584 1.154 1.304.74l19.303-11.145c.767-.498 1.25-1.332 1.3-2.244 0-.825-.59-1.16-1.305-.745L84.844 84.471z" opacity=".119" transform="translate(-763 -6552) translate(0 6215) translate(697 232) translate(66 105)"/>
                            <path fill="url(#h1xnkacodc)" d="M45.249 113.24c-.955.62-1.556 1.658-1.615 2.794l.135 48.11c0 1 .73 1.44 1.624.925l23.817-13.758c.952-.62 1.551-1.655 1.614-2.788l-.115-48.116c0-1.024-.73-1.439-1.624-.919l-23.836 13.753z" transform="translate(-763 -6552) translate(0 6215) translate(697 232) translate(66 105)"/>
                            <path fill="#0B0830" d="M47.323 114.735c-.612.396-.997 1.061-1.035 1.79 0 .654.465.924 1.04.594l15.384-8.896c.614-.396.999-1.064 1.035-1.794 0-.654-.47-.92-1.04-.59l-15.384 8.896zM47.543 159.577c-.613.396-.999 1.06-1.04 1.789 0 .66.47.93 1.045.595l7.592-4.378c.609-.401.992-1.066 1.035-1.794 0-.66-.47-.925-1.045-.595l-7.587 4.383zM47.538 156.054c-.612.396-.997 1.061-1.035 1.789 0 .66.47.924 1.04.595l15.404-8.89c.611-.4.997-1.066 1.04-1.795 0-.66-.47-.924-1.045-.595l-15.404 8.896z" opacity=".119" transform="translate(-763 -6552) translate(0 6215) translate(697 232) translate(66 105)"/>
                        </g>
                        <g>
                            <path fill="url(#534dq7nlad)" d="M5.072 17.675s-.94 5.457-.955 7.682c0 1.452 2.752 8.978 2.752 9.803 0 .825 1.045 3.587 2.023 4.367.84.672.14-2.983.91-3.125.377-.068-.792-1.714-1.334-2.587-.541-.874-1.446-6.95-1.593-7.763-.216-1.151.822-6.792.822-6.792l-1.105-1.64-1.52.055z" transform="translate(-763 -6552) translate(0 6215) translate(697 232) translate(66 105) matrix(-1 0 0 1 154 124)"/>
                            <g fill="#000053" opacity=".2" transform="translate(-763 -6552) translate(0 6215) translate(697 232) translate(66 105) matrix(-1 0 0 1 154 124) translate(0 73.63)">
                                <ellipse cx="11.33" cy="6.685" rx="11.311" ry="6.653" transform="rotate(-.16 11.33 6.685)"/>
                            </g>
                            <path fill="url(#vv15zzrpxe)" d="M12.033 81.735c-.109.27-.246.528-.408.77-.115.087-.507 1.16.13 1.478.478.236 3.043.605 4.84-.042 1.894-.683.318-1.941-.507-1.643-.825.297-1.775-.301-1.947-.489l-2.108-.074z" transform="translate(-763 -6552) translate(0 6215) translate(697 232) translate(66 105) matrix(-1 0 0 1 154 124)"/>
                            <path fill="url(#xdmlacg3uf)" d="M6.324 77.417c-.1.351-.247.688-.436 1-.2.235-.026 1.555 1.316 1.203 1.879-.492 4.198-1.753 3.822-2.497-.427-.883-1.472-.618-2.841.029-.592.232-1.229.322-1.86.265z" transform="translate(-763 -6552) translate(0 6215) translate(697 232) translate(66 105) matrix(-1 0 0 1 154 124)"/>
                            <path fill="#0B0830" d="M20.614 34.154s-6.641.589-11.585-1.164c0 0-2.144 4.903-2.453 7.455-.347 2.86 1.468 9.17 1.468 13.73 0 5.207-1.172 7.986-1.172 10.654 0 4.085-.548 12.614-.548 12.614.647.375 1.44.375 2.087 0 0 0 1.643-7.546 3.345-13.727.637-2.29 1.274-4.395 1.828-5.867 0 0-.261 5.822-.755 7.051-1.121 2.765-.796 16.835-.796 16.835s.637.647 2.108.074c0 0 1.877-10.473 3.654-15.454 1.778-4.98 6.686-22.423 2.82-32.2z" transform="translate(-763 -6552) translate(0 6215) translate(697 232) translate(66 105) matrix(-1 0 0 1 154 124)"/>
                            <path fill="url(#4hhfuxc5zg)" d="M22.672 19.975s1.274 5.79 1.867 6.815c1.325-1.812 2.93-3.904 4.118-5.68.679-1.012-.165-2.144.733-2.332.452-.094 1.252-1.64 1.532-1.455.28.184-.283.863-.538 1.293 1.099 1.08.596 1.66-.475 2.96 0 0-4.826 9.755-6.007 9.056-2.033-1.177-4.737-9.45-4.737-9.45l1.115-2.766 2.392 1.559z" transform="translate(-763 -6552) translate(0 6215) translate(697 232) translate(66 105) matrix(-1 0 0 1 154 124)"/>
                            <path fill="#D4436C" d="M20.614 34.154s-3.708 2.002-7.645 1.061c-3.937-.941-3.94-2.225-3.94-2.225s1.296-1.446 1.162-4.205c-.133-2.759-1.77-5.456-2.707-8.927 0 0-2.376.072-3.217-.863.455-1.562 1.025-5.288 3.526-5.269 1.892 0 6.332 1.1 9.193 2.355 2.86 1.255 5.638 2.91 6.024 3.842.385.932.697 3.296.697 3.296s-1.761 1.52-3.462 1.349c0 0 .286 1.617-.937 2.358-.541 3.218.07 4.647 1.306 7.228z" transform="translate(-763 -6552) translate(0 6215) translate(697 232) translate(66 105) matrix(-1 0 0 1 154 124)"/>
                            <path fill="url(#ef8chp9pph)" d="M19.05 17.058s-5.58.116-6.393-.97c-.812-1.088 0-1.618 0-1.618s.956-2.319.58-3.024c-.376-.705-3.023-3.06-1.969-5.686 1.055-2.626 5.368-2.63 6.412-1.727 1.045.902 1.348 1.617 1.37 2.196.022.579.637 1.494.774 1.617-.18.128-.284.34-.277.563.032.323-.127 2.387.026 3.17.152.782-1.39.355-2.125 1.254-.736.9-.85 1.844-.656 2.265.194.42 2.258 1.96 2.258 1.96z" transform="translate(-763 -6552) translate(0 6215) translate(697 232) translate(66 105) matrix(-1 0 0 1 154 124)"/>
                            <path fill="url(#uft5i2pdsi)" d="M18.56 4.961s-.109 1.446-.86 1.857c-.752.41-.523 2.215-.523 2.215s-.917-1.294-1.752-.488c-.834.805.035 1.646.44 1.902.404.255-2.625 2.551-1.383 4.078.828 1.025.191 3.066-.876 2.617-1.456-.592-2.51.821-2.338 1.549.344 1.459-2.523 3.205-3.631.197-.765-2.076.898-2.62 1.083-3.923.092-.628-1.36-2.487-.395-4.098.965-1.61 1.911-1.75 1.322-2.727-1.15-1.911-.271-4.929 1.84-5.362C13.209 2.428 13.336.543 14.46.1c1.083-.424 5.285.375 4.1 4.861z" transform="translate(-763 -6552) translate(0 6215) translate(697 232) translate(66 105) matrix(-1 0 0 1 154 124)"/>
                        </g>
                    </g>
                </g>
            </g>
        </g>
    </g>
</svg>
