<svg xmlns="http://www.w3.org/2000/svg" width="117" height="158" viewBox="0 0 117 158">
    <defs>
        <linearGradient id="byyrcrgm9a" x1="50%" x2="50%" y1="0%" y2="100%">
            <stop offset="0%" stop-color="#FFF"/>
            <stop offset="100%" stop-color="#98A0D7"/>
        </linearGradient>
        <linearGradient id="sppc5vw48b" x1=".004%" x2="100%" y1="50.074%" y2="50.074%">
            <stop offset="0%" stop-color="#E3E7FF"/>
            <stop offset="21%" stop-color="#E6E3F8"/>
            <stop offset="52%" stop-color="#EDD7E6"/>
            <stop offset="88%" stop-color="#FAC3C7"/>
            <stop offset="100%" stop-color="#FBB"/>
        </linearGradient>
        <linearGradient id="mg9k9q1bzc" x1="0%" x2="100.242%" y1="50.441%" y2="50.441%">
            <stop offset="0%" stop-color="#E3E7FF"/>
            <stop offset="21%" stop-color="#E6E3F8"/>
            <stop offset="52%" stop-color="#EDD7E6"/>
            <stop offset="88%" stop-color="#FAC3C7"/>
            <stop offset="100%" stop-color="#FBB"/>
        </linearGradient>
        <linearGradient id="8365w9dwud" x1="0%" x2="99.759%" y1="50.377%" y2="50.377%">
            <stop offset="0%" stop-color="#E3E7FF"/>
            <stop offset="21%" stop-color="#E6E3F8"/>
            <stop offset="52%" stop-color="#EDD7E6"/>
            <stop offset="88%" stop-color="#FAC3C7"/>
            <stop offset="100%" stop-color="#FBB"/>
        </linearGradient>
        <linearGradient id="jpki8b87ke" x1="-.012%" x2="100%" y1="49.984%" y2="49.984%">
            <stop offset="0%" stop-color="#E3E7FF"/>
            <stop offset="21%" stop-color="#E6E3F8"/>
            <stop offset="52%" stop-color="#EDD7E6"/>
            <stop offset="88%" stop-color="#FAC3C7"/>
            <stop offset="100%" stop-color="#FBB"/>
        </linearGradient>
        <linearGradient id="wys3tqe4bf" x1=".018%" x2="100.006%" y1="50.007%" y2="50.007%">
            <stop offset="0%" stop-color="#FF5182"/>
            <stop offset="100%" stop-color="#BF3D62"/>
        </linearGradient>
        <linearGradient id="ho22kcf2tg" x1="-.013%" x2="99.953%" y1="49.98%" y2="49.98%">
            <stop offset="0%" stop-color="#E3E7FF"/>
            <stop offset="21%" stop-color="#E6E3F8"/>
            <stop offset="52%" stop-color="#EDD7E6"/>
            <stop offset="88%" stop-color="#FAC3C7"/>
            <stop offset="100%" stop-color="#FBB"/>
        </linearGradient>
        <linearGradient id="cokqcmpkyh" x1="-.022%" x2="100%" y1="49.912%" y2="49.912%">
            <stop offset="0%" stop-color="#E3E7FF"/>
            <stop offset="21%" stop-color="#E6E3F8"/>
            <stop offset="52%" stop-color="#EDD7E6"/>
            <stop offset="88%" stop-color="#FAC3C7"/>
            <stop offset="100%" stop-color="#FBB"/>
        </linearGradient>
        <linearGradient id="rusw78te2i" x1="50.013%" x2="50.013%" y1="100.005%" y2="-.003%">
            <stop offset="0%" stop-color="#120091"/>
            <stop offset="100%" stop-color="#5D5FAA"/>
        </linearGradient>
        <linearGradient id="ieml06r39j" x1="50%" x2="50%" y1="0%" y2="100%">
            <stop offset="0%" stop-color="#FFF"/>
            <stop offset="100%" stop-color="#CFD4F8"/>
        </linearGradient>
        <linearGradient id="17ihnxlw0k" x1="50%" x2="50%" y1="0%" y2="100%">
            <stop offset="0%" stop-color="#FFF"/>
            <stop offset="100%" stop-color="#CFD4F8"/>
        </linearGradient>
        <linearGradient id="w8vtzfpqfl" x1="50%" x2="50%" y1="0%" y2="100%">
            <stop offset="0%" stop-color="#FFF"/>
            <stop offset="100%" stop-color="#CFD4F8"/>
        </linearGradient>
        <linearGradient id="qk0ianyjum" x1="50%" x2="50%" y1="0%" y2="100%">
            <stop offset="0%" stop-color="#FFF"/>
            <stop offset="100%" stop-color="#CFD4F8"/>
        </linearGradient>
        <linearGradient id="98nj9nr7kn" x1="37.365%" x2="65.667%" y1="33.059%" y2="71.062%">
            <stop offset="0%" stop-color="#F6AB6E"/>
            <stop offset="100%" stop-color="#FFBFB9"/>
        </linearGradient>
        <linearGradient id="ewk3f2bi6o" x1="34.273%" x2="69.502%" y1="33.059%" y2="71.062%">
            <stop offset="0%" stop-color="#F6AB6E"/>
            <stop offset="100%" stop-color="#FFBFB9"/>
        </linearGradient>
        <linearGradient id="dqagkqw2pp" x1="50%" x2="50%" y1="0%" y2="100%">
            <stop offset="0%" stop-color="#FFF"/>
            <stop offset="100%" stop-color="#98A0D7"/>
        </linearGradient>
        <linearGradient id="z8tj9dttyq" x1="50%" x2="50%" y1="0%" y2="100%">
            <stop offset="0%" stop-color="#FFF"/>
            <stop offset="100%" stop-color="#98A0D7"/>
        </linearGradient>
        <linearGradient id="fz1qjpql2r" x1="25.182%" x2="80.775%" y1="44.268%" y2="57.126%">
            <stop offset="0%" stop-color="#F6AB6E"/>
            <stop offset="100%" stop-color="#FFBFB9"/>
        </linearGradient>
        <linearGradient id="p7nkseozgs" x1="50%" x2="50%" y1="0%" y2="100%">
            <stop offset="0%" stop-color="#FFF"/>
            <stop offset="100%" stop-color="#98A0D7"/>
        </linearGradient>
        <linearGradient id="fw5uvxk3gt" x1="25.182%" x2="80.775%" y1="41.716%" y2="60.3%">
            <stop offset="0%" stop-color="#F6AB6E"/>
            <stop offset="100%" stop-color="#FFBFB9"/>
        </linearGradient>
    </defs>
    <g fill="none" fill-rule="evenodd">
        <g>
            <g>
                <g transform="translate(-427 -6601) translate(0 6215) matrix(-1 0 0 1 544 386)">
                    <path fill="url(#byyrcrgm9a)" d="M60.258 33.038c24.367 14.127 44.042 48.396 43.967 76.531-.076 28.135-19.88 39.483-44.258 25.355C35.589 120.797 15.925 86.518 16 58.383c.076-28.135 19.912-39.46 44.258-25.345z"/>
                    <g transform="matrix(-1 0 0 1 30 71)">
                        <path fill="url(#sppc5vw48b)" d="M4.548 19.31l-1.055-.522s-.778-1.264-1.101-1.221c-.156.021.305.888-.244.537-1.34-.86-2.828.205-1.812.58.951.35 1.525.992 2.303 1.074l1.327.59.582-1.038z"/>
                        <path fill="#D4436C" d="M17.638 13.755c-2.209 1.566-4.52 7.078-6.046 8.155-2.858-1.187-7.666-3.052-7.666-3.052-.192.162-.337.373-.42.61-.078.281-.103.574-.074.864 0 0 6.867 4.044 8.367 4.273 1.858.28 6.995-6.18 7.321-7.038.418-1.074.827-3.977-1.482-3.812z"/>
                        <ellipse cx="19.74" cy="81.035" fill="#000053" opacity=".2" rx="10.243" ry="5.936" transform="rotate(-.16 19.74 81.035)"/>
                        <path fill="#0246AF" d="M16.473 78.53c.096-.267.042-.565-.14-.781-.006.104-.028.207-.065.305-.256.687-1.339 1.904-1.65 2.1-.311.195-.802-.055-.802-.055s.116-.202.277-.47l-.235.198s-.96.882-.585 1.19c.375.309 1.083.239 1.806-.271.45-.335.806-.782 1.03-1.297v.378c.214-.13.38-.324.477-.555-.089-.237-.127-.49-.113-.742z"/>
                        <path fill="url(#mg9k9q1bzc)" d="M14.615 80.148c.305-.196 1.394-1.413 1.65-2.1.037-.098.059-.2.064-.305-.033-.305-.033-.612 0-.916h-1.05c-.043.533-.194 1.052-.441 1.526-.214.348-.525.864-.748 1.24-.161.268-.277.47-.277.47s.488.277.802.085z"/>
                        <path fill="#0246AF" d="M26.737 81.033c.095-.267.041-.564-.14-.782-.004.105-.025.208-.064.306-.406.8-.967 1.514-1.65 2.096-.305.196-.803-.055-.803-.055l.278-.466-.235.195s-.958.885-.582 1.19c.375.305 1.08.241 1.802-.268.452-.336.807-.784 1.031-1.3v.378c.213-.131.377-.327.47-.559-.086-.235-.122-.485-.107-.735z"/>
                        <path fill="url(#8365w9dwud)" d="M24.874 82.647c.688-.581 1.255-1.294 1.665-2.096.039-.098.06-.201.064-.306-.032-.304-.032-.61 0-.915H25.54c-.045.532-.194 1.051-.44 1.526-.216.348-.524.863-.75 1.239l-.278.467s.491.28.803.085z"/>
                        <path fill="#0B0830" d="M14.697 37.072s-.753 6.98-.567 11.256c.186 4.276 1.309 13.465 1.22 16.38-.088 2.914-.403 12.253-.403 12.253s1.22.364 1.916 0c0 0 2.864-13.147 2.678-15.073-.186-1.926-1.363-3.34-1.083-4.56.281-1.22 2.069-11.066 2.185-11.326.116-.26.61-.165.634.07.025.235-.491 13.16-.256 13.89.235.73 4.191 17.506 3.965 19.594.7.344 1.52.344 2.221 0 0 0 .37-13.579-.546-15.059-.915-1.48-2.562-3.421-2.239-4.376.323-.956 4.27-13.399 3.84-17.8-.43-4.4-2.254-5.606-2.254-5.606l-11.31.357z"/>
                        <path fill="#D4436C" d="M28.064 38.198s-.527 3.138-5.533 2.82c-5.006-.317-7.2-1.956-8.154-3.699 0 0 3.773-7.404 3.355-8.24-.225-.55-.416-1.114-.573-1.688-.323-1.037-.696-2.188-1.113-2.573-.705-.637-2.572-2.008-1.66-3.525.912-1.516 2.135-5.359 2.471-6.488.175-.76.871-1.286 1.65-1.245.263-.008.526.015.784.067.923.205 1.81.548 2.63 1.02 0 0 .418.243 1.019.61.6.366 1.473.897 2.26 1.41 1 .647 1.913 1.29 2.218 1.65.771.916.28 3.178-1.336 5.851-1.617 2.674-3.298 4.496-2.944 5.323.354.827 3.432 7.016 4.926 8.707z"/>
                        <path fill="url(#jpki8b87ke)" d="M25.2 16.667c-1.086 2.252-6.757 5.081-6.757 5.081-1.41-4.697-.046-7.282 0-7.987.004-.074.022-.147.055-.214.263-.007.526.016.784.068l.1-1.55h4.088c-.398 1.014-.579 2.102-.53 3.192.631.384 1.464.897 2.26 1.41z"/>
                        <path fill="url(#wys3tqe4bf)" d="M17.006 4.456c-.125-.061-1.83-1.014-.887-2.07C17.06 1.33 21.506-1.419 25.2.912c3.694 2.332 2.593 6.556 2.31 7.401-.285.846-1.971 4.365-1.08 6.058 0 0-3.182.306-4.927-.827 0 0 1.452-2.652.982-4.578-.47-1.925-4.182-3.15-4.68-3.525-.327-.274-.598-.608-.799-.985z"/>
                        <path fill="url(#ho22kcf2tg)" d="M23.986 11.692s-2.114 2.54-5.119 2.255c-.3-.656-.655-1.286-1.061-1.883-.516-.705-.958-2.347-.723-3.708.235-1.361-.482-2.915-.077-3.9 0 0 1.355 1.101 2.8 1.175 1.447.073 2.255-.214 2.68.631.423.846.984 2.787.774 3.385l.491-.07s.433-.86.848-.952c1.126-.248 1.635 1.904-.613 3.067z"/>
                        <path fill="url(#cokqcmpkyh)" d="M24.745 40.316l-.439 1.166s-1.434 1.148-1.058 1.526c.506.498-.943 2.481.451 2.393 1.297-.082 1.718-2.588 1.72-3.107l.48-1.468-1.154-.51z"/>
                        <path fill="#D4436C" d="M25.118 19.697c-1.178 2.704 2.44 9.376 1.687 12.382-.754 3.006-2.627 9.055-2.627 9.055.264.26.575.466.915.61.388.125.802.142 1.199.05 0 0 2.508-6.63 3.295-9.553.787-2.924-1.364-12.641-1.959-13.581-.705-1.108-2.114.128-2.51 1.037z"/>
                    </g>
                    <path fill="url(#rusw78te2i)" d="M116.892 100.158V98.97v-.952l-.064-.736-.065-.865v-.563c0-.4-.097-.811-.14-1.222 0-.238-.054-.476-.075-.714v-.238c-.086-.736-.194-1.482-.312-2.218.005-.104.005-.209 0-.313-.1-.628-.208-1.255-.323-1.882l-.065-.336c-.053-.292-.118-.584-.183-.887-.064-.303-.14-.724-.215-1.081-.075-.357-.097-.412-.14-.606l-.226-.974c-.064-.249-.118-.497-.172-.746-.054-.249-.161-.595-.237-.898l-.258-.973c0-.163-.075-.325-.118-.487-.119-.422-.248-.844-.377-1.277-.13-.432-.15-.551-.237-.822-.019-.081-.044-.16-.075-.238-.226-.768-.474-1.525-.721-2.293l-.076-.195c-.226-.681-.463-1.363-.7-2.044 0-.108-.085-.206-.118-.314l-.29-.768c-.13-.357-.27-.725-.41-1.082-.14-.356-.182-.465-.268-.692l-.345-.844c-.086-.216-.161-.421-.247-.627-.162-.4-.345-.8-.517-1.211-.097-.217-.183-.444-.28-.671-.042-.076-.078-.156-.107-.238-.316-.721-.64-1.442-.97-2.163-.003-.03-.003-.058 0-.087-.085-.184-.182-.368-.268-.563-.27-.562-.538-1.081-.818-1.687 0-.076-.086-.162-.119-.249l-.688-1.32-.55-1.081-.16-.292-.356-.65-.98-1.773c-.14-.227-.268-.465-.408-.703l-.27-.476-.516-.855-.829-1.374-.775-1.222-.86-1.341-.291-.444-.71-1.082-.496-.713c-.517-.747-1.076-1.482-1.571-2.164-.603-.833-1.227-1.644-1.852-2.455l-.086-.108c-.452-.585-.925-1.169-1.399-1.742-.097-.108-.183-.238-.28-.346-.56-.682-1.076-1.352-1.7-2.012l-.086-.087c-.172-.205-.355-.4-.538-.595-.356-.41-.722-.822-1.077-1.222l-.204-.227c-.248-.27-.506-.53-.764-.8l-.83-.877-.311-.313-.84-.823-.71-.714-.41-.389-.903-.833-.624-.584-.496-.443-.914-.79-.55-.487-.613-.497-.893-.736c-.15-.13-.302-.26-.463-.379-.161-.119-.506-.389-.753-.584l-.84-.638-.334-.26-1.076-.746-.71-.498-.183-.13c-.614-.432-1.238-.843-1.873-1.243l-.14-.087c-.57-.357-1.14-.714-1.711-1.082l-.43-.26-1.292-.724-.119-.065-.183-.097-1.442-.747-.183-.097h-.075c-.517-.26-1.076-.508-1.56-.735l-.151-.076-.183-.076c-1.077-.476-2.153-.909-3.23-1.276l-.182-.076h-.13c-.516-.173-1.076-.346-1.539-.498h-.269c-.538-.162-1.076-.313-1.625-.443-.549-.14-1.076-.26-1.636-.368h-.258c-.57-.108-1.13-.205-1.69-.281h-.258c-.581-.076-1.152-.13-1.722-.173H52.175l-1.077.076h-.14l-.98.108h-.333c-.323 0-.635.097-.958.162h-.129c-.473.097-.947.216-1.41.335l-.215.054c-.441.13-.883.27-1.313.422h-.118l-.183.076-.528.195-.355.151-.527.227-.323.152-.57.27-.27.14c-.28.141-.549.293-.818.455l-12.69 7.41.808-.455.28-.13.56-.28.333-.152.527-.227.356-.14.516-.206.302-.109c.44-.151.871-.292 1.323-.41l.216-.055c.463-.13.925-.248 1.399-.335h.172l.958-.173h.323l.99-.119h.172c.345 0 .7 0 1.077-.065H42.96c.56 0 1.13.097 1.712.173h.258c.56.076 1.076.162 1.69.281h.258c.55.109 1.077.228 1.636.368l1.625.454.27.076c.505.162 1.011.325 1.528.509l.323.108c.527.194 1.076.39 1.593.606.516.216 1.076.432 1.571.67l.344.152 1.561.735.248.13c.484.238.958.498 1.442.757.097 0 .204.098.301.162.43.228.861.466 1.292.725.72.411 1.431.855 2.152 1.298l.14.087c.7.454 1.389.908 2.078 1.384l.7.509c.462.324.914.66 1.366.995l.84.638 1.227.963.893.735 1.162.985.904.8 1.13 1.017.894.844 1.13 1.081.829.823 1.151 1.2.754.8c.441.477.882.953 1.313 1.44.183.205.355.389.527.594.614.693 1.216 1.407 1.808 2.164l.29.357c.496.605.991 1.222 1.475 1.85.635.8 1.249 1.6 1.852 2.433.538.736 1.076 1.471 1.582 2.218l.484.725c.345.49.678.988 1.001 1.492l.872 1.342c.258.4.517.81.764 1.222.248.411.56.909.829 1.363.269.454.527.887.786 1.33.14.238.28.476.409.714.333.584.667 1.18.99 1.774.118.217.237.422.344.639.248.454.485.919.721 1.384l.678 1.32c.323.638.635 1.287.947 1.947.087.184.173.368.27.552.376.81.753 1.633 1.076 2.466l.29.67c.259.606.517 1.212.765 1.829l.333.843c.237.595.463 1.19.69 1.785.096.249.193.509.279.757.29.79.56 1.569.829 2.358l.064.195c.28.855.55 1.698.808 2.553l.247.833c.172.584.334 1.168.495 1.752l.258.985c.14.54.27 1.081.399 1.633.075.325.161.65.226.974.129.562.247 1.135.366 1.698.053.292.118.595.172.887.15.735.28 1.471.398 2.163 0 .108 0 .217.054.325.13.833.247 1.676.344 2.51 0 .237.054.464.086.702.065.606.13 1.201.173 1.796 0 .281 0 .573.075.855.043.562.075 1.125.097 1.687v3.191c0 .79 0 1.644-.065 2.434v.67c0 .552-.064 1.082-.107 1.623l-.097.92c-.054.454-.097.897-.162 1.341-.064.443-.097.649-.14.974-.043.324-.14.8-.215 1.2-.075.4-.129.714-.204 1.082-.076.368-.162.714-.248 1.082-.086.367-.204.81-.312 1.211-.108.4-.226.833-.355 1.244l-.097.292c-.183.563-.377 1.082-.581 1.666l-.172.422c-.194.476-.388.952-.592 1.406l-.13.27c-.269.574-.549 1.082-.84 1.666-.3.53-.602 1.082-.925 1.558l-.204.292c-.248.379-.495.736-.754 1.082l-.323.422c-.247.313-.495.627-.753.93l-.301.346c-.355.4-.721.79-1.077 1.157l-.161.152c-.334.314-.667.616-1.012.909l-.387.313c-.294.238-.596.465-.904.682l-.377.281c-.43.292-.861.573-1.313.833l12.7-7.41c.442-.27.883-.551 1.303-.844l.387-.27.904-.692.377-.303c.344-.292.689-.606 1.012-.92l.161-.151c.387-.368.743-.746 1.076-1.157l.29-.347c.26-.302.517-.605.765-.93l.312-.422c.258-.346.517-.714.764-1.081l.194-.303.065-.087c.301-.476.592-.963.86-1.471.27-.498.539-1.017.786-1.547 0 0 0-.076.054-.108l.119-.281c.215-.455.409-.92.602-1.396l.162-.422.129-.313c.161-.444.312-.898.463-1.363.033-.096.062-.193.086-.292.075-.227.15-.455.215-.682.065-.227.097-.367.15-.551.108-.4.216-.8.313-1.212l.13-.497c0-.184.074-.38.107-.563.075-.357.15-.703.215-1.082 0-.173.075-.357.108-.54l.096-.66c.054-.314.097-.639.14-.963.043-.325.054-.325.076-.498.021-.173.064-.562.086-.843.021-.282.075-.606.097-.92v-.368c0-.41 0-.833.075-1.254v-.671c-.005-.054-.005-.108 0-.162V102.213c-.075-.724-.086-1.384-.108-2.055z"/>
                    <path fill="url(#ieml06r39j)" d="M60.236 42.092c20.03 11.618 36.217 39.796 36.142 62.934C96.303 128.164 80.03 137.477 60 125.86c-20.03-11.618-36.217-39.796-36.153-62.934.065-23.138 16.37-32.462 36.39-20.834z"/>
                    <path fill="#FFF" d="M60.225 44.364c18.943 10.99 34.259 37.633 34.194 59.494-.064 21.861-15.466 30.71-34.441 19.72-18.975-10.99-34.259-37.644-34.194-59.495.064-21.85 15.51-30.72 34.441-19.72z"/>
                    <path fill="url(#17ihnxlw0k)" d="M56.566 87.059L57.933 86.269 55.909 89.536 54.542 90.336z"/>
                    <path fill="url(#w8vtzfpqfl)" d="M61.743 84.333v-.173c-.005-.025-.005-.05 0-.076v-.065c.006-.057.006-.115 0-.173.005-.061.005-.122 0-.184v-.238-.13-.183l-.054-.184v-.152-.184l-.065-.173-.064-.173v-.119c-.03-.052-.055-.106-.075-.162l-.076-.173s-.054-.119-.086-.184l-.064-.119v-.076c0-.097-.097-.184-.151-.28l-.162-.25-.096-.151-.054-.097-.205-.282-.14-.194-.053-.065-.076-.098-.14-.151-.129-.152-.15-.151-.097-.097c-.045-.053-.096-.1-.151-.14l-.15-.142-.152-.119-.16-.119-.152-.108-.14-.097-.14-.087-.118-.065-.14-.064h-.075l-.14-.054H56.91l-.236.064-.28.12-1.356.8c.084-.054.174-.098.269-.13l.258-.065h.893l.312.087.334.13.334.173c.222.131.434.28.635.443.183.14.366.314.549.487.186.188.362.387.527.595.161.205.312.41.452.627.032.057.068.11.108.162.118.195.236.4.344.606.117.221.222.449.312.682.086.227.172.454.237.67.065.227.118.444.161.66 0 .216.065.422.087.638.01.199.01.397 0 .595-.01.185-.032.37-.065.552-.034.166-.08.328-.14.487-.062.15-.141.291-.237.422-.14.206-.324.38-.538.508l1.367-.8c.214-.129.398-.302.538-.509l.065-.086.129-.238c.004-.033.004-.065 0-.098-.005-.021-.005-.043 0-.065l.064-.184V85.6v-.26-.162-.487l-.29-.357z"/>
                    <path fill="url(#qk0ianyjum)" d="M72.581 61.163L73.948 60.362 60.957 81.369 59.59 82.17z"/>
                    <path fill="url(#98nj9nr7kn)" d="M72.581 61.163L57.588 79.67c-.2-.164-.412-.312-.635-.444-1.216-.703-2.389-.66-3.035.26-.646.92-.603 2.79.183 4.489l-2.335 2.877 2.776 3.483 2.024-3.245.355.228c1.206.703 2.379.66 3.024-.26.775-1.082.582-3.05-.355-4.857l12.991-21.04z"/>
                    <path fill="#FFF" d="M56.943 80.893c.39.238.732.546 1.011.909.98 1.222 1.313 2.856.743 3.667-.377.53-1.076.562-1.776.151-.388-.24-.73-.548-1.012-.908-.98-1.223-1.313-2.867-.742-3.667.376-.53 1.065-.563 1.776-.152zM86.433 37.776c-1.743 1.082-4.391.368-5.93-1.536-1.177-1.242-1.375-3.124-.485-4.586l-3.132 4.327c-.89 1.462-.692 3.344.485 4.586 1.539 1.904 4.187 2.596 5.93 1.536.333-.194.623-.455.85-.768l3.132-4.327c-.23.31-.519.571-.85.768z"/>
                    <ellipse cx="87.059" cy="28.691" fill="url(#ewk3f2bi6o)" rx="5.995" ry="7.531" transform="rotate(-53.931 87.06 28.69)"/>
                    <path fill="url(#dqagkqw2pp)" d="M92.331 34.726c-2.906 1.752-7.33.606-9.89-2.575-2.046-2.552-2.283-5.624-.797-7.647l-3.606 4.921c-1.474 2.034-1.248 5.106.807 7.648 2.562 3.18 6.985 4.327 9.88 2.575.555-.33 1.038-.767 1.421-1.288l3.595-4.932c-.381.52-.86.962-1.41 1.298z"/>
                    <path fill="#FFF" d="M64.972 14.66V14.995c-.012.064-.03.125-.054.184.004.05.004.101 0 .152l-.086.184-.086.14c-.043.071-.09.14-.14.206l-.097.119c-.08.099-.167.193-.258.281l-.097.097-.183.152-.172.13-.216.151-.226.14c-.183.111-.374.209-.57.293l-.162.076-.473.173-.172.065-.312.086-.237.065-.334.076h-.226c-.226 0-.452.065-.689.097h-2.626l-.323-.054-.247-.054-.366-.098-.216-.054c-.215-.064-.43-.13-.645-.216h-.076c-.281-.114-.555-.248-.818-.4-.999-.442-1.68-1.395-1.776-2.488v9.508c.092 1.091.769 2.045 1.766 2.488.264.15.537.284.818.4h.053l.646.217h.204l.377.097h.247l.313.065h2.637l.678-.097h.194l.333-.065.237-.065.312-.087h.173l.473-.173.172-.076c.196-.086.386-.184.57-.292h.065l.162-.097.215-.151.161-.13.194-.152.065-.065c.086-.097.172-.184.247-.28l.065-.055v-.065c.056-.068.107-.14.15-.216.02-.027.039-.056.054-.087.033-.059.062-.12.087-.184l.053-.108s0-.119.054-.184v-.119c.005-.06.005-.122 0-.184.005-.043.005-.086 0-.13V14.65c.108-.054.108-.054.108.011z"/>
                    <path fill="url(#z8tj9dttyq)" d="M67.975 5.541c.004.094.004.188 0 .282 0 .075 0 .151-.054.227-.054.075 0 .184-.086.27-.024.078-.053.154-.086.227l-.13.282-.129.194c-.064.108-.129.217-.204.325l-.237.292-.065.076-.376.367c-.086.087-.183.152-.28.238l-.248.195-.323.216-.344.228c-.269.151-.56.292-.85.421l-.259.12c-.226.097-.462.183-.7.259l-.268.097-.452.13-.366.098-.485.108-.344.065c-.344.065-.678.108-1.022.14h-3.552l-.41-.065-.473-.075-.376-.076-.56-.14-.302-.087c-.33-.101-.652-.21-.968-.325l-.452-.194-.237-.109c-.225-.102-.445-.218-.657-.346-1.137-.569-2.026-1.54-2.497-2.726-.111-.323-.166-.663-.161-1.006v9.844c0 1.341.883 2.704 2.658 3.732.216.119.431.238.657.346l.237.097.409.184c.316.13.64.242.968.335h.076l.237.055.56.14h.365l.485.087h.398l.452.054h3.1l1.022-.14h.054l.29-.066.496-.108.355-.097c.15 0 .312-.076.463-.13h.096l.162-.054.71-.27.248-.109c.293-.124.577-.269.85-.432l.108-.065.236-.152.323-.227.259-.195.269-.227h.054l.333-.335.054-.065.172-.206c.025-.03.047-.062.065-.097.078-.1.15-.205.215-.314 0 0 .065-.086.086-.13v-.075c.05-.09.093-.185.13-.281l.075-.163v-.054c.03-.088.055-.179.075-.27 0-.065 0-.12.054-.184.01-.093.01-.188 0-.281.005-.061.005-.123 0-.184V5.293c.036.08.069.164.097.248z"/>
                    <path fill="url(#fz1qjpql2r)" d="M65.338 1.539c3.53 2.044 3.551 5.409 0 7.42-3.999 2.054-8.735 2.054-12.733 0-3.53-2.044-3.552-5.408-.054-7.41 4.014-2.062 8.77-2.066 12.787-.01z"/>
                    <path fill="#FFF" d="M38.387 14.595h-.075l-.13.076-.16.097-.216.13-.27.162-.29.163h-.053l-.345.205-.656.379-1.453.844-2.153 1.233-.614.346-.527.303-.764.4 4.305 7.572c.262-.124.517-.261.764-.411l.259-.14.236-.141.205-.109.183-.108.161-.086.097-.054h.054l.161-.087.151-.086.162-.087.14-.087.129-.075.129-.076.14-.076.118-.065.108-.065.107-.064H38.452l.075-.054H39.108l.086-.055.162-.086.161-.087.13-.086.107-.054h.528l.086-.054.086-.054.107-.055.14-.075.119-.076.129-.076.118-.075h.086l.086-.054h.13l-2.982-9.152z"/>
                    <path fill="#0246AF" d="M36.138 7.553c2.152-1.179 1.431-.746-1.486.952-2.916 1.699-6.995 4.046-9.094 5.225-2.099 1.179-1.421.746 1.496-.963s6.996-4.045 9.084-5.214z"/>
                    <path fill="url(#p7nkseozgs)" d="M37.365 6.883l-.13.086-.215.13-.29.184-.377.216-.441.27-.538.314-.625.357-1.722 1.006h-.075l-.527.303h-.054l-1.82 1.082-.58.335-.582.336-1.69.951h-.064l-.452.26-.118.065-.388.216-.13.076-.29.162-.462.26c-.818.454-1.206.67-1.217.66l4.973 8.73s.409-.206 1.227-.672l.452-.248.398-.227.334-.195.129-.076h.054l.129-.076.28-.151.269-.162.258-.152.118-.065.13-.075.247-.141.13-.076.118-.065.247-.14.226-.13h.065l.15-.076.184-.108.193-.108-.054.065.14-.076.14-.086.14-.076.108-.065h.097l.097-.054.107-.065.097-.054H36.644l.086-.054h.258l.086-.054.086-.054.172-.098.205-.119.301-.173.29-.173.109-.065.107-.054.097-.054.097-.065.097-.054h.086l.075-.054h.086l.086-.054h.076l.086-.054h.097l.097-.054.096-.054.097-.054.119-.076.14-.076.129-.076.194-.108.14-.086.236-.141.14-.086.226-.141.162-.087.172-.097.14-.087.118-.075.097-.054h.065l.075-.054h.118l-4.423-10.06z"/>
                    <path fill="url(#fw5uvxk3gt)" d="M37.3 7L36 4c-2.667 0-5 .667-7 2s-4 3-6 5l2 3 12.3-7z"/>
                </g>
            </g>
        </g>
    </g>
</svg>