<svg xmlns="http://www.w3.org/2000/svg" width="468" height="341" viewBox="0 0 468 341">
    <defs>
        <linearGradient id="l6jvlv1jnb" x1="49.995%" x2="50%" y1="66.837%" y2="29.69%">
            <stop offset="0%" stop-color="#FFF"/>
            <stop offset="50%" stop-color="#FCFDFF"/>
            <stop offset="100%" stop-color="#F4F7FF"/>
        </linearGradient>
        <linearGradient id="8nkft4px7c" x1=".004%" x2="100%" y1="50.074%" y2="50.074%">
            <stop offset="0%" stop-color="#E3E7FF"/>
            <stop offset="21%" stop-color="#E6E3F8"/>
            <stop offset="52%" stop-color="#EDD7E6"/>
            <stop offset="88%" stop-color="#FAC3C7"/>
            <stop offset="100%" stop-color="#FBB"/>
        </linearGradient>
        <linearGradient id="z1jvplauid" x1="0%" x2="100.242%" y1="50.441%" y2="50.441%">
            <stop offset="0%" stop-color="#E3E7FF"/>
            <stop offset="21%" stop-color="#E6E3F8"/>
            <stop offset="52%" stop-color="#EDD7E6"/>
            <stop offset="88%" stop-color="#FAC3C7"/>
            <stop offset="100%" stop-color="#FBB"/>
        </linearGradient>
        <linearGradient id="yddwk6q6ge" x1="0%" x2="99.759%" y1="50.377%" y2="50.377%">
            <stop offset="0%" stop-color="#E3E7FF"/>
            <stop offset="21%" stop-color="#E6E3F8"/>
            <stop offset="52%" stop-color="#EDD7E6"/>
            <stop offset="88%" stop-color="#FAC3C7"/>
            <stop offset="100%" stop-color="#FBB"/>
        </linearGradient>
        <linearGradient id="o7mi7e5xjf" x1="-.012%" x2="100%" y1="49.984%" y2="49.984%">
            <stop offset="0%" stop-color="#E3E7FF"/>
            <stop offset="21%" stop-color="#E6E3F8"/>
            <stop offset="52%" stop-color="#EDD7E6"/>
            <stop offset="88%" stop-color="#FAC3C7"/>
            <stop offset="100%" stop-color="#FBB"/>
        </linearGradient>
        <linearGradient id="wlzr7islyg" x1=".018%" x2="100.006%" y1="50.007%" y2="50.007%">
            <stop offset="0%" stop-color="#FF5182"/>
            <stop offset="100%" stop-color="#BF3D62"/>
        </linearGradient>
        <linearGradient id="rkyxyrqfqh" x1="-.013%" x2="99.953%" y1="49.98%" y2="49.98%">
            <stop offset="0%" stop-color="#E3E7FF"/>
            <stop offset="21%" stop-color="#E6E3F8"/>
            <stop offset="52%" stop-color="#EDD7E6"/>
            <stop offset="88%" stop-color="#FAC3C7"/>
            <stop offset="100%" stop-color="#FBB"/>
        </linearGradient>
        <linearGradient id="oj1qac3ryi" x1="-.022%" x2="100%" y1="49.912%" y2="49.912%">
            <stop offset="0%" stop-color="#E3E7FF"/>
            <stop offset="21%" stop-color="#E6E3F8"/>
            <stop offset="52%" stop-color="#EDD7E6"/>
            <stop offset="88%" stop-color="#FAC3C7"/>
            <stop offset="100%" stop-color="#FBB"/>
        </linearGradient>
        <linearGradient id="jxr554damj" x1="50.013%" x2="50.013%" y1="100.005%" y2="-.003%">
            <stop offset="0%" stop-color="#5D5FAA"/>
            <stop offset="100%" stop-color="#120091"/>
        </linearGradient>
        <linearGradient id="7ctj43s3hk" x1="50.013%" x2="50.013%" y1="100.005%" y2="-.003%">
            <stop offset="0%" stop-color="#5D5FAA"/>
            <stop offset="100%" stop-color="#120091"/>
        </linearGradient>
        <linearGradient id="gcbjbpt3ol" x1="50.013%" x2="50.013%" y1="100.005%" y2="-.003%">
            <stop offset="0%" stop-color="#5D5FAA"/>
            <stop offset="100%" stop-color="#120091"/>
        </linearGradient>
        <linearGradient id="xc6soog3mm" x1="40.962%" x2="61.207%" y1="33.059%" y2="71.062%">
            <stop offset="0%" stop-color="#F6AB6E"/>
            <stop offset="100%" stop-color="#FFBFB9"/>
        </linearGradient>
        <linearGradient id="xcxebjtxkn" x1="40.968%" x2="61.199%" y1="33.059%" y2="71.062%">
            <stop offset="0%" stop-color="#F6AB6E"/>
            <stop offset="100%" stop-color="#FFBFB9"/>
        </linearGradient>
        <linearGradient id="596a5fp4ao" x1="-.117%" x2="100.008%" y1="50.014%" y2="50.014%">
            <stop offset="20%" stop-color="#E0E6FD"/>
            <stop offset="52%" stop-color="#FFF"/>
            <stop offset="73%" stop-color="#FCFDFF"/>
            <stop offset="85%" stop-color="#F4F6FE"/>
            <stop offset="95%" stop-color="#E6EBFE"/>
            <stop offset="100%" stop-color="#DBE2FD"/>
        </linearGradient>
        <linearGradient id="q3teg1jiyp" x1="50%" x2="50%" y1="0%" y2="100%">
            <stop offset="0%" stop-color="#FFF"/>
            <stop offset="100%" stop-color="#98A0D7"/>
        </linearGradient>
        <linearGradient id="laafili2zq" x1="50%" x2="50%" y1="0%" y2="100%">
            <stop offset="0%" stop-color="#FFF"/>
            <stop offset="100%" stop-color="#CFD4F8"/>
        </linearGradient>
        <linearGradient id="mwyrl2hdyr" x1="50%" x2="50%" y1="0%" y2="100%">
            <stop offset="0%" stop-color="#FFF"/>
            <stop offset="100%" stop-color="#98A0D7"/>
        </linearGradient>
        <linearGradient id="3u1m7y7vms" x1="50%" x2="50%" y1="0%" y2="100%">
            <stop offset="0%" stop-color="#FFF"/>
            <stop offset="100%" stop-color="#CFD4F8"/>
        </linearGradient>
        <linearGradient id="v4hoqdoobt" x1="50.013%" x2="50.013%" y1="100.005%" y2="-.003%">
            <stop offset="0%" stop-color="#5D5FAA"/>
            <stop offset="100%" stop-color="#120091"/>
        </linearGradient>
        <linearGradient id="ao44dqvnbu" x1="50%" x2="50%" y1="0%" y2="100%">
            <stop offset="0%" stop-color="#FFF"/>
            <stop offset="100%" stop-color="#CFD4F8"/>
        </linearGradient>
        <linearGradient id="cbpxqzoi9v" x1="50.013%" x2="50.013%" y1="100.005%" y2="-.003%">
            <stop offset="0%" stop-color="#5D5FAA"/>
            <stop offset="100%" stop-color="#120091"/>
        </linearGradient>
        <linearGradient id="qwwjsvlkrw" x1="50%" x2="50%" y1="0%" y2="100%">
            <stop offset="0%" stop-color="#FFF"/>
            <stop offset="100%" stop-color="#CFD4F8"/>
        </linearGradient>
        <linearGradient id="rvowym84ex" x1="50.013%" x2="50.013%" y1="100.005%" y2="-.003%">
            <stop offset="0%" stop-color="#5D5FAA"/>
            <stop offset="100%" stop-color="#120091"/>
        </linearGradient>
        <linearGradient id="uh2qjx9d7y" x1="50%" x2="50%" y1="0%" y2="100%">
            <stop offset="0%" stop-color="#FFF"/>
            <stop offset="100%" stop-color="#CFD4F8"/>
        </linearGradient>
        <linearGradient id="2dzzbh7ykz" x1="50.013%" x2="50.013%" y1="100.005%" y2="-.003%">
            <stop offset="0%" stop-color="#5D5FAA"/>
            <stop offset="100%" stop-color="#120091"/>
        </linearGradient>
        <linearGradient id="skmpkxqakA" x1="50%" x2="50%" y1="0%" y2="100%">
            <stop offset="0%" stop-color="#FFF"/>
            <stop offset="100%" stop-color="#CFD4F8"/>
        </linearGradient>
        <linearGradient id="tmdtdclv0B" x1="50%" x2="50%" y1="0%" y2="100%">
            <stop offset="0%" stop-color="#FFF"/>
            <stop offset="100%" stop-color="#98A0D7"/>
        </linearGradient>
        <linearGradient id="82trxp2g1C" x1="50%" x2="50%" y1="0%" y2="100%">
            <stop offset="0%" stop-color="#FFF"/>
            <stop offset="100%" stop-color="#98A0D7"/>
        </linearGradient>
        <linearGradient id="0na8tm7wpD" x1="50%" x2="50%" y1="0%" y2="100%">
            <stop offset="0%" stop-color="#FFF"/>
            <stop offset="100%" stop-color="#98A0D7"/>
        </linearGradient>
        <linearGradient id="n36qhmxzqE" x1="50%" x2="50%" y1="0%" y2="100%">
            <stop offset="0%" stop-color="#FFF"/>
            <stop offset="100%" stop-color="#98A0D7"/>
        </linearGradient>
        <linearGradient id="51rxt5mq6F" x1="67.113%" x2="67.113%" y1="-6.361%" y2="195.778%">
            <stop offset="0%" stop-color="#FFF"/>
            <stop offset="100%" stop-color="#CFD4F8"/>
        </linearGradient>
        <linearGradient id="tp9zgjfk0G" x1="59.153%" x2="22.747%" y1="21.653%" y2="59.787%">
            <stop offset="0%" stop-color="#FFF"/>
            <stop offset="100%" stop-color="#CFD4F8"/>
        </linearGradient>
        <linearGradient id="79tlv69a6H" x1="50%" x2="50%" y1="0%" y2="100%">
            <stop offset="0%" stop-color="#FFF"/>
            <stop offset="100%" stop-color="#98A0D7"/>
        </linearGradient>
        <linearGradient id="co9iohv83I" x1="67.113%" x2="67.113%" y1="-6.361%" y2="195.778%">
            <stop offset="0%" stop-color="#FFF"/>
            <stop offset="100%" stop-color="#CFD4F8"/>
        </linearGradient>
        <linearGradient id="rbmrqk8n3J" x1="45.784%" x2="34.893%" y1="16.037%" y2="57.653%">
            <stop offset="0%" stop-color="#FFF"/>
            <stop offset="100%" stop-color="#CFD4F8"/>
        </linearGradient>
        <linearGradient id="0wilur4dpK" x1="50%" x2="50%" y1="0%" y2="100%">
            <stop offset="0%" stop-color="#FFF"/>
            <stop offset="100%" stop-color="#CFD4F8"/>
        </linearGradient>
        <linearGradient id="hsoxgpnwdL" x1="50.013%" x2="50.013%" y1="100.005%" y2="-.003%">
            <stop offset="0%" stop-color="#5D5FAA"/>
            <stop offset="100%" stop-color="#120091"/>
        </linearGradient>
        <filter id="9hs1n16pta" width="100%" height="100%" x="0%" y="0%" filterUnits="objectBoundingBox">
            <feGaussianBlur in="SourceGraphic"/>
        </filter>
    </defs>
    <g fill="none" fill-rule="evenodd">
        <g>
            <g>
                <g>
                    <g>
                        <path fill="#0246AF" d="M458.242 193.633c11.329 6.563 11.394 17.179.14 23.734l-203.816 118.71c-11.255 6.564-29.566 6.564-40.927 0L8.54 217.376c-11.329-6.563-11.394-17.187-.14-23.75L212.215 74.922c11.255-6.563 29.565-6.563 40.927 0l205.1 118.711z" filter="url(#9hs1n16pta)" opacity=".05" transform="translate(-364 -786) translate(308.08 786) translate(56.325)"/>
                        <path fill="url(#l6jvlv1jnb)" d="M459.053 175.63c11.334 6.554 11.4 17.203.14 23.756l-203.925 118.7c-11.26 6.552-29.585 6.552-40.886 0L9.134 199.368c-11.334-6.553-11.391-17.202-.131-23.755l203.875-118.7c11.26-6.552 29.577-6.552 40.886 0l205.29 118.717z" transform="translate(-364 -786) translate(308.08 786) translate(56.325)"/>
                        <g transform="translate(-364 -786) translate(308.08 786) translate(56.325) translate(278.596 60)">
                            <path fill="url(#8nkft4px7c)" d="M4.548 19.31l-1.055-.522s-.778-1.264-1.101-1.221c-.156.021.305.888-.244.537-1.34-.86-2.828.205-1.812.58.951.35 1.525.992 2.303 1.074l1.327.59.582-1.038z"/>
                            <path fill="#D4436C" d="M17.638 13.755c-2.209 1.566-4.52 7.078-6.046 8.155-2.858-1.187-7.666-3.052-7.666-3.052-.192.162-.337.373-.42.61-.078.281-.103.574-.074.864 0 0 6.867 4.044 8.367 4.273 1.858.28 6.995-6.18 7.321-7.038.418-1.074.827-3.977-1.482-3.812z"/>
                            <ellipse cx="19.74" cy="81.035" fill="#000053" opacity=".2" rx="10.243" ry="5.936" transform="rotate(-.16 19.74 81.035)"/>
                            <path fill="#0246AF" d="M16.473 78.53c.096-.267.042-.565-.14-.781-.006.104-.028.207-.065.305-.256.687-1.339 1.904-1.65 2.1-.311.195-.802-.055-.802-.055s.116-.202.277-.47l-.235.198s-.96.882-.585 1.19c.375.309 1.083.239 1.806-.271.45-.335.806-.782 1.03-1.297v.378c.214-.13.38-.324.477-.555-.089-.237-.127-.49-.113-.742z"/>
                            <path fill="url(#z1jvplauid)" d="M14.615 80.148c.305-.196 1.394-1.413 1.65-2.1.037-.098.059-.2.064-.305-.033-.305-.033-.612 0-.916h-1.05c-.043.533-.194 1.052-.441 1.526-.214.348-.525.864-.748 1.24-.161.268-.277.47-.277.47s.488.277.802.085z"/>
                            <path fill="#0246AF" d="M26.737 81.033c.095-.267.041-.564-.14-.782-.004.105-.025.208-.064.306-.406.8-.967 1.514-1.65 2.096-.305.196-.803-.055-.803-.055l.278-.466-.235.195s-.958.885-.582 1.19c.375.305 1.08.241 1.802-.268.452-.336.807-.784 1.031-1.3v.378c.213-.131.377-.327.47-.559-.086-.235-.122-.485-.107-.735z"/>
                            <path fill="url(#yddwk6q6ge)" d="M24.874 82.647c.688-.581 1.255-1.294 1.665-2.096.039-.098.06-.201.064-.306-.032-.304-.032-.61 0-.915H25.54c-.045.532-.194 1.051-.44 1.526-.216.348-.524.863-.75 1.239l-.278.467s.491.28.803.085z"/>
                            <path fill="#0B0830" d="M14.697 37.072s-.753 6.98-.567 11.256c.186 4.276 1.309 13.465 1.22 16.38-.088 2.914-.403 12.253-.403 12.253s1.22.364 1.916 0c0 0 2.864-13.147 2.678-15.073-.186-1.926-1.363-3.34-1.083-4.56.281-1.22 2.069-11.066 2.185-11.326.116-.26.61-.165.634.07.025.235-.491 13.16-.256 13.89.235.73 4.191 17.506 3.965 19.594.7.344 1.52.344 2.221 0 0 0 .37-13.579-.546-15.059-.915-1.48-2.562-3.421-2.239-4.376.323-.956 4.27-13.399 3.84-17.8-.43-4.4-2.254-5.606-2.254-5.606l-11.31.357z"/>
                            <path fill="#D4436C" d="M28.064 38.198s-.527 3.138-5.533 2.82c-5.006-.317-7.2-1.956-8.154-3.699 0 0 3.773-7.404 3.355-8.24-.225-.55-.416-1.114-.573-1.688-.323-1.037-.696-2.188-1.113-2.573-.705-.637-2.572-2.008-1.66-3.525.912-1.516 2.135-5.359 2.471-6.488.175-.76.871-1.286 1.65-1.245.263-.008.526.015.784.067.923.205 1.81.548 2.63 1.02 0 0 .418.243 1.019.61.6.366 1.473.897 2.26 1.41 1 .647 1.913 1.29 2.218 1.65.771.916.28 3.178-1.336 5.851-1.617 2.674-3.298 4.496-2.944 5.323.354.827 3.432 7.016 4.926 8.707z"/>
                            <path fill="url(#o7mi7e5xjf)" d="M25.2 16.667c-1.086 2.252-6.757 5.081-6.757 5.081-1.41-4.697-.046-7.282 0-7.987.004-.074.022-.147.055-.214.263-.007.526.016.784.068l.1-1.55h4.088c-.398 1.014-.579 2.102-.53 3.192.631.384 1.464.897 2.26 1.41z"/>
                            <path fill="url(#wlzr7islyg)" d="M17.006 4.456c-.125-.061-1.83-1.014-.887-2.07C17.06 1.33 21.506-1.419 25.2.912c3.694 2.332 2.593 6.556 2.31 7.401-.285.846-1.971 4.365-1.08 6.058 0 0-3.182.306-4.927-.827 0 0 1.452-2.652.982-4.578-.47-1.925-4.182-3.15-4.68-3.525-.327-.274-.598-.608-.799-.985z"/>
                            <path fill="url(#rkyxyrqfqh)" d="M23.986 11.692s-2.114 2.54-5.119 2.255c-.3-.656-.655-1.286-1.061-1.883-.516-.705-.958-2.347-.723-3.708.235-1.361-.482-2.915-.077-3.9 0 0 1.355 1.101 2.8 1.175 1.447.073 2.255-.214 2.68.631.423.846.984 2.787.774 3.385l.491-.07s.433-.86.848-.952c1.126-.248 1.635 1.904-.613 3.067z"/>
                            <path fill="url(#oj1qac3ryi)" d="M24.745 40.316l-.439 1.166s-1.434 1.148-1.058 1.526c.506.498-.943 2.481.451 2.393 1.297-.082 1.718-2.588 1.72-3.107l.48-1.468-1.154-.51z"/>
                            <path fill="#D4436C" d="M25.118 19.697c-1.178 2.704 2.44 9.376 1.687 12.382-.754 3.006-2.627 9.055-2.627 9.055.264.26.575.466.915.61.388.125.802.142 1.199.05 0 0 2.508-6.63 3.295-9.553.787-2.924-1.364-12.641-1.959-13.581-.705-1.108-2.114.128-2.51 1.037z"/>
                        </g>
                        <g>
                            <g fill="url(#jxr554damj)" opacity=".2" transform="translate(-364 -786) translate(308.08 786) translate(56.325) translate(130)">
                                <path d="M113.464.817c3.296-1.899 5.984-.377 5.992 3.42l.352 123.689c-.222 4.196-2.434 8.033-5.952 10.324L6.344 200.41c-3.304 1.907-5.984.377-5.992-3.42L0 73.303c.223-4.194 2.435-8.028 5.952-10.316L113.464.816z" opacity=".6"/>
                            </g>
                            <g fill="url(#7ctj43s3hk)" opacity=".4" transform="translate(-364 -786) translate(308.08 786) translate(56.325) translate(130) translate(13.328 7.813)">
                                <path d="M113.472.82c3.296-1.906 6-.376 6 3.397l.352 123.68c-.215 4.205-2.428 8.052-5.952 10.349L6.344 200.391c-3.296 1.914-5.976.384-5.992-3.412L0 73.289c.222-4.197 2.438-8.035 5.96-10.323L113.472.82z" opacity=".6"/>
                            </g>
                            <g fill="url(#gcbjbpt3ol)" opacity=".6" transform="translate(-364 -786) translate(308.08 786) translate(56.325) translate(130) translate(26.664 15.61)">
                                <path d="M113.464.817c3.296-1.899 5.984-.377 5.992 3.42l.352 123.689c-.222 4.196-2.434 8.033-5.952 10.324L6.344 200.395C3.04 202.3.36 200.77.352 196.975L0 73.31c.215-4.196 2.43-8.034 5.952-10.316L113.464.817z"/>
                            </g>
                            <path fill="url(#xc6soog3mm)" d="M86.8 79.581c1.464-.8 2.656-.168 2.664 1.522l.096 34.536c-.096 1.867-1.08 3.574-2.648 4.59l-30.024 17.356c-1.464.85-2.664.176-2.664-1.514l-.096-34.544c.103-1.873 1.096-3.583 2.672-4.598l30-17.348z" transform="translate(-364 -786) translate(308.08 786) translate(56.325) translate(130)"/>
                            <path fill="#FFF" d="M122.2 88.447c1.104-.64 2-.128 2 1.146-.072 1.4-.81 2.68-1.984 3.444l-18.16 10.5c-1.104.633-2 .128-2-1.145.07-1.403.807-2.687 1.984-3.452l18.16-10.493zM135.352 69.577c1.104-.64 2-.128 2.008 1.138-.077 1.404-.82 2.688-2 3.452L104 92.284c-1.104.64-2 .128-2-1.145.07-1.401.808-2.683 1.984-3.444l31.368-18.118zM135.32 58.324c1.104-.633 2-.128 2.008 1.137-.078 1.407-.82 2.692-2 3.46L104 81.04c-1.104.632-2 .12-2-1.154.07-1.4.809-2.681 1.984-3.444l31.336-18.117z" transform="translate(-364 -786) translate(308.08 786) translate(56.325) translate(130)"/>
                            <path fill="url(#xcxebjtxkn)" d="M86.8 136.696c1.464-.849 2.656-.168 2.664 1.522l.096 34.536c-.096 1.867-1.08 3.574-2.648 4.59L56.888 194.7c-1.464.85-2.664.168-2.664-1.522l-.096-34.536c.101-1.871 1.096-3.58 2.672-4.59l30-17.356z" transform="translate(-364 -786) translate(308.08 786) translate(56.325) translate(130)"/>
                            <path fill="#FFF" d="M135.32 115.44c1.104-.642 2-.129 2.008 1.136-.078 1.407-.82 2.692-2 3.46L104 138.147c-1.104.64-2 .128-2-1.146.07-1.4.808-2.682 1.984-3.444l31.336-18.117zM135.352 126.684c1.104-.632 2-.128 2.008 1.146-.077 1.404-.82 2.688-2 3.452L104 149.399c-1.104.633-2 .128-2-1.145.07-1.403.807-2.687 1.984-3.452l31.368-18.118zM122.2 145.555c1.104-.633 2-.12 2 1.145-.072 1.402-.81 2.685-1.984 3.452l-18.16 10.492c-1.104.641-2 .128-2-1.137.07-1.403.807-2.687 1.984-3.452l18.16-10.5z" transform="translate(-364 -786) translate(308.08 786) translate(56.325) translate(130)"/>
                            <path fill="#FFF" fill-rule="nonzero" d="M62.968 108.255L59.6 120.709l2-1.153.616-2.523 3.296-1.906.64 1.794 2-1.153-3.448-8.522-1.736 1.009zm-.248 6.728l1.12-4.582L65 113.67l-2.28 1.314zM75.648 103.898c-.16-.447-.46-.83-.856-1.09-.398-.233-.862-.329-1.32-.272-.6.087-1.176.3-1.688.625l-2.808 1.602v10.492l2.784-1.602c.627-.361 1.198-.812 1.696-1.338.522-.531.976-1.126 1.352-1.77.373-.654.66-1.354.856-2.082.201-.72.3-1.464.296-2.21v-.513c.017-.629-.089-1.255-.312-1.842zm-2.168 6.199c-.368.766-.96 1.403-1.696 1.826l-.912.529v-7.009l.928-.536c.736-.425 1.304-.48 1.688-.152.473.59.685 1.348.584 2.098v.489c.022.952-.18 1.896-.592 2.755z" transform="translate(-364 -786) translate(308.08 786) translate(56.325) translate(130)"/>
                            <path fill="#FFF" d="M83.752 102.816c-.119-.257-.318-.468-.568-.6-.298-.137-.624-.203-.952-.193-.444.02-.886.078-1.32.177-.436.126-.892.17-1.344.128-.295-.038-.505-.305-.472-.601.002-.18.035-.359.096-.529.064-.196.156-.382.272-.552.128-.19.279-.365.448-.52.197-.175.411-.328.64-.457.205-.128.43-.223.664-.28.158-.037.324-.02.472.047.135.061.237.178.28.32.07.18.102.37.096.561l1.88-1.089c.016-.402-.07-.801-.248-1.161-.14-.291-.382-.52-.68-.641-.34-.118-.706-.137-1.056-.056-.487.104-.952.291-1.376.553-.49.28-.947.616-1.36 1-.397.364-.754.77-1.064 1.21-.29.41-.525.857-.696 1.33-.156.431-.237.886-.24 1.345-.023.367.063.732.248 1.05.154.244.385.43.656.528.313.109.646.15.976.12.395-.029.788-.082 1.176-.16.296-.074.599-.12.904-.136.183-.021.368-.005.544.048.126.038.227.133.272.256.05.145.074.296.072.449-.003.177-.032.352-.088.52-.059.188-.145.366-.256.53-.127.186-.277.356-.448.504-.191.177-.404.33-.632.456-.232.144-.482.257-.744.337-.182.058-.378.058-.56 0-.162-.05-.296-.167-.368-.32-.105-.229-.152-.48-.136-.73l-1.888 1.082c-.011.335.04.669.152.985.078.245.218.466.408.64.177.153.389.26.616.313.265.045.535.045.8 0 .296-.037.586-.11.864-.216.311-.126.613-.273.904-.44.488-.278.944-.609 1.36-.986.393-.346.742-.739 1.04-1.17.28-.399.504-.836.664-1.297.158-.44.239-.903.24-1.37-.01-.342-.095-.678-.248-.985z" transform="translate(-364 -786) translate(308.08 786) translate(56.325) translate(130)"/>
                            <path fill="#FFF" fill-rule="nonzero" d="M63.096 164.937l-3.368 12.455 2-1.153.616-2.531 3.296-1.899.64 1.794 2-1.153-3.44-8.522-1.744 1.01zm-.248 6.728L64 167.084l1.152 3.268-2.304 1.313zM75.784 160.572c-.167-.444-.47-.825-.864-1.09-.399-.23-.864-.321-1.32-.255-.6.081-1.174.289-1.688.608l-2.808 1.602v10.492l2.784-1.601c.632-.351 1.21-.794 1.712-1.314.515-.538.96-1.138 1.328-1.786.37-.656.658-1.356.856-2.082.198-.723.298-1.47.296-2.22v-.472c.018-.64-.082-1.278-.296-1.882zM73.6 166.78c-.371.767-.965 1.404-1.704 1.827l-.904.528v-7.008l.936-.537c.736-.424 1.296-.48 1.688-.152.47.592.68 1.349.584 2.099v.488c.012.952-.193 1.895-.6 2.755z" transform="translate(-364 -786) translate(308.08 786) translate(56.325) translate(130)"/>
                            <path fill="#FFF" d="M83.888 159.49c-.12-.256-.323-.465-.576-.592-.296-.135-.62-.198-.944-.184-.445.007-.887.064-1.32.168-.439.127-.897.17-1.352.128-.141-.018-.27-.091-.356-.204-.087-.112-.126-.255-.108-.396.003-.18.032-.358.088-.529.067-.195.158-.38.272-.553.131-.19.284-.365.456-.52.197-.177.411-.333.64-.465.206-.125.43-.217.664-.272.159-.032.323-.016.472.048.13.068.23.182.28.32.062.18.092.37.088.56l1.88-1.088c.015-.401-.067-.8-.24-1.162-.139-.29-.381-.52-.68-.64-.342-.117-.71-.14-1.064-.065-.487.108-.952.298-1.376.561-.49.28-.947.616-1.36 1.001-.397.364-.754.77-1.064 1.21-.29.409-.522.856-.688 1.33-.162.427-.246.88-.248 1.337-.015.368.07.734.248 1.057.154.245.385.43.656.529.314.104.646.145.976.12.398-.029.793-.082 1.184-.16.298-.07.6-.117.904-.144.183-.02.368 0 .544.056.122.037.22.128.264.248.052.146.076.301.072.456-.004.177-.031.352-.08.521-.064.186-.15.363-.256.529-.131.183-.281.352-.448.504-.193.176-.405.329-.632.457-.235.138-.485.25-.744.336-.186.05-.382.05-.568 0-.16-.058-.292-.176-.368-.328-.103-.232-.15-.484-.136-.737l-1.888 1.097c-.008.336.046.67.16.985.078.244.216.464.4.641.177.151.388.256.616.304.264.05.536.05.8 0 .293-.037.58-.11.856-.216.314-.119.617-.266.904-.44.49-.279.949-.609 1.368-.985.389-.35.738-.743 1.04-1.17.278-.401.5-.837.664-1.297.15-.441.229-.904.232-1.37-.003-.342-.082-.678-.232-.985z" transform="translate(-364 -786) translate(308.08 786) translate(56.325) translate(130)"/>
                        </g>
                        <path fill="url(#596a5fp4ao)" d="M467.477 184.485v.205c0 .065-.09.36-.131.533 1.128 4.986-1.562 10.203-8.128 14.033L255.311 318.125c-11.259 6.561-29.582 6.561-40.882 0L9.197 199.256c-5.715-3.28-8.56-7.578-8.601-11.876v4.92c0 4.331 2.837 8.67 8.536 11.976l205.231 118.86c.679.394 1.39.763 2.118 1.108l.752.328c.434.196.818.393 1.3.566l.237.09.5.18c.58.213 1.16.419 1.757.607l.613.189.41.131.735.18c.597.156 1.194.304 1.799.443l.482.115c.238.05.483.082.72.123.507.099 1.022.189 1.537.27l.613.108c.221 0 .45.049.679.073.482.066.957.115 1.447.164l.687.074h.646c.49 0 .973.058 1.464.074l.736.041h3.458c.654 0 1.308-.082 1.954-.131l.818-.058.368-.04.589-.074c.67-.082 1.34-.173 2.003-.28l.49-.081.238-.041c.319-.058.621-.132.932-.197.531-.107 1.07-.213 1.594-.345.385-.09.76-.205 1.145-.303.384-.099.998-.27 1.488-.427l.319-.09c.597-.197 1.177-.402 1.758-.623l.245-.107c.63-.246 1.251-.508 1.848-.82l.532-.254c.67-.32 1.324-.665 1.954-1.025l203.874-118.845.351-.205c.524-.312 1.014-.64 1.48-.968l.238-.172c.523-.377 1.022-.77 1.488-1.181l.204-.18.254-.222c.376-.344.72-.697 1.038-1.05.074-.074.13-.147.196-.221.188-.222.385-.443.564-.665.18-.221.254-.352.385-.533.05-.06.097-.122.139-.188.229-.337.45-.673.637-1.01.066-.114.115-.229.172-.335l.115-.222c.179-.355.34-.72.482-1.09 0-.09.057-.181.09-.271.026-.067.047-.136.065-.205.127-.38.23-.766.311-1.157 0-.074 0-.156.041-.23-.004-.068-.004-.136 0-.205.062-.407.1-.818.114-1.23V183c.007.496-.023.993-.09 1.485z" transform="translate(-364 -786) translate(308.08 786) translate(56.325)"/>
                        <path fill="#858585" d="M100.096 107.495L100.096 107.505 100.096 107.495z" transform="translate(-364 -786) translate(308.08 786) translate(56.325)"/>
                    </g>
                    <g fill-rule="nonzero">
                        <path fill="url(#q3teg1jiyp)" d="M31.651 32.365L16.71 23.66 16.768 8.639 31.709 17.344z" transform="translate(-364 -786) translate(308.08 786) translate(56.325) translate(344.596 127)"/>
                        <path fill="#000" d="M25.467 28.349L10.526 19.644 10.636 19.579 25.569 28.283z" transform="translate(-364 -786) translate(308.08 786) translate(56.325) translate(344.596 127)"/>
                        <path fill="url(#laafili2zq)" d="M25.569 28.283L10.636 19.579 14.59 3.715 29.531 12.412z" transform="translate(-364 -786) translate(308.08 786) translate(56.325) translate(344.596 127)"/>
                        <path fill="#FFF" d="M29.531 12.412L14.59 3.715 21.001 0 35.942 8.705z" transform="translate(-364 -786) translate(308.08 786) translate(56.325) translate(344.596 127)"/>
                        <path fill="url(#mwyrl2hdyr)" d="M23.793 36.915L8.852 28.21 4.166 15.937 19.107 24.642z" transform="translate(-364 -786) translate(308.08 786) translate(56.325) translate(344.596 127)"/>
                        <path fill="#FFF" d="M14.941 20.861L0 12.156 6.308 8.5 21.249 17.204z" transform="translate(-364 -786) translate(308.08 786) translate(56.325) translate(344.596 127)"/>
                        <path fill="url(#3u1m7y7vms)" d="M14.999 42L0.058 33.295 0 12.156 14.941 20.861z" transform="translate(-364 -786) translate(308.08 786) translate(56.325) translate(344.596 127)"/>
                        <path fill="url(#v4hoqdoobt)" d="M35.942 8.705L36 29.844 31.651 32.365 31.709 17.344 31.629 17.395 26.899 35.112 23.793 36.915 19.107 24.642 19.027 24.686 19.173 39.582 14.999 42 14.941 20.861 21.249 17.204 25.467 28.349 25.569 28.283 29.531 12.412z" transform="translate(-364 -786) translate(308.08 786) translate(56.325) translate(344.596 127)"/>
                    </g>
                    <g fill-rule="nonzero">
                        <g>
                            <path fill="#F4F5FC" d="M55.086 92.913l-35.06-20.47c1.463.858 3.483.539 6.04-.94 2.633-1.529 4.787-3.768 6.218-6.464 1.514-2.799 2.635-5.794 3.332-8.902.704-3.063 1.143-6.182 1.314-9.321l35.059 20.461c-.17 3.14-.61 6.258-1.313 9.321-.698 3.108-1.82 6.103-3.333 8.902-1.43 2.696-3.585 4.935-6.218 6.464-2.557 1.479-4.576 1.799-6.039.94" transform="translate(-364 -786) translate(308.08 786) translate(56.325) translate(159 89) translate(104.978)"/>
                            <path fill="#F4F5FC" d="M71.989 67.277l-35.06-20.461c.147-3.057.223-5.655.23-7.793.006-2.138-.083-4.636-.27-7.493-.135-2.637-.593-5.248-1.362-7.773-.524-2.003-1.714-3.765-3.373-4.995l-.189-.12 35.06 20.461.189.12c1.659 1.23 2.849 2.992 3.372 4.995.756 2.514 1.204 5.11 1.333 7.733.166 2.878.256 5.375.269 7.493.013 2.118-.063 4.716-.229 7.793" transform="translate(-364 -786) translate(308.08 786) translate(56.325) translate(159 89) translate(104.978)"/>
                            <path fill="url(#ao44dqvnbu)" d="M44.292 109.898L9.242 89.417c-1.598-.948-2.959-2.25-3.98-3.807-2.128-3.367-3.519-7.15-4.078-11.1C.402 69.906.006 65.244 0 60.573c.007-5.105.377-10.203 1.104-15.256.736-5.397 2.07-10.695 3.98-15.795 1.96-5.181 4.64-10.058 7.959-14.487 3.465-4.595 7.833-8.428 12.834-11.26C31.07.759 35.354-.45 38.73.15c1.401.24 2.748.727 3.98 1.439l35.08 20.46c-1.233-.709-2.58-1.196-3.98-1.438-3.37-.6-7.654.61-12.854 3.627-5 2.831-9.369 6.664-12.834 11.26-3.32 4.427-6 9.304-7.959 14.486-1.91 5.1-3.245 10.398-3.98 15.795-.717 5.05-1.076 10.145-1.074 15.246.004 4.688.4 9.367 1.184 13.987.56 3.95 1.95 7.733 4.079 11.1 1.02 1.557 2.381 2.859 3.98 3.807" transform="translate(-364 -786) translate(308.08 786) translate(56.325) translate(159 89) translate(104.978)"/>
                            <path fill="url(#cbpxqzoi9v)" d="M85.848 36.965c.777 4.601 1.17 9.26 1.174 13.927-.004 5.108-.37 10.21-1.095 15.266-.736 5.398-2.07 10.696-3.98 15.795-1.955 5.18-4.635 10.055-7.958 14.477-3.467 4.597-7.835 8.432-12.834 11.27-5.2 3.017-9.485 4.226-12.854 3.626-3.27-.55-6.16-2.458-7.959-5.255-2.129-3.367-3.52-7.15-4.079-11.1-.784-4.62-1.18-9.3-1.184-13.987.008-5.101.377-10.196 1.105-15.246.734-5.397 2.07-10.696 3.979-15.795 1.958-5.182 4.638-10.06 7.959-14.487 3.475-4.583 7.85-8.402 12.854-11.22 5.193-3.016 9.478-4.225 12.854-3.626 3.271.549 6.16 2.456 7.959 5.255 2.122 3.369 3.505 7.153 4.059 11.1zM71.989 67.277c.153-3.057.229-5.655.229-7.793s-.1-4.649-.299-7.533c-.136-2.637-.593-5.247-1.363-7.773-.523-2.002-1.713-3.765-3.372-4.995-1.486-1-3.555-.74-6.208.78-2.661 1.522-4.835 3.775-6.268 6.493-1.493 2.794-2.6 5.779-3.293 8.872-.705 3.063-1.142 6.182-1.303 9.321-.16 3.058-.239 5.655-.229 7.773.01 2.118.1 4.636.269 7.503.129 2.638.587 5.25 1.363 7.773.522 1.99 1.692 3.749 3.322 4.996 1.48 1.052 3.575.792 6.288-.78 2.633-1.529 4.788-3.768 6.218-6.464 1.514-2.799 2.635-5.794 3.333-8.902.703-3.063 1.142-6.182 1.313-9.32" transform="translate(-364 -786) translate(308.08 786) translate(56.325) translate(159 89) translate(104.978)"/>
                        </g>
                        <g>
                            <path fill="#F4F5FC" d="M55.074 92.866L19.982 72.414c1.473.86 3.485.543 6.038-.948 2.634-1.522 4.789-3.758 6.216-6.451 1.516-2.798 2.64-5.792 3.343-8.898.708-3.06 1.147-6.178 1.312-9.317l35.052 20.452c-.162 3.134-.598 6.249-1.303 9.306-.7 3.11-1.825 6.107-3.342 8.908-1.43 2.692-3.584 4.927-6.217 6.45-2.556 1.479-4.565 1.808-6.037 1" transform="translate(-364 -786) translate(308.08 786) translate(56.325) translate(159 89) translate(46.964 34.14)"/>
                            <path fill="#F4F5FC" d="M71.973 67.252L36.89 46.8c.16-3.065.24-5.652.23-7.789-.01-2.137-.09-4.613-.27-7.489-.131-2.636-.586-5.245-1.352-7.77-.527-2.002-1.72-3.764-3.382-4.992l-.199-.13L66.97 39.081l.189.12c1.661 1.228 2.855 2.99 3.381 4.993.782 2.53 1.25 5.145 1.393 7.79.179 2.868.268 5.365.268 7.489 0 2.123-.076 4.72-.228 7.789" transform="translate(-364 -786) translate(308.08 786) translate(56.325) translate(159 89) translate(46.964 34.14)"/>
                            <path fill="url(#qwwjsvlkrw)" d="M44.292 109.832L9.24 89.38c-1.6-.944-2.96-2.246-3.978-3.804-2.13-3.366-3.522-7.148-4.088-11.095C.389 69.863-.004 65.186 0 60.501c.003-5.089.366-10.171 1.084-15.208.742-5.394 2.076-10.69 3.979-15.788 1.953-5.179 4.633-10.05 7.957-14.47 3.466-4.594 7.833-8.428 12.83-11.264C31.057.762 35.34-.446 38.703.146c1.399.25 2.745.74 3.978 1.448l35.091 20.431c-1.232-.711-2.578-1.201-3.978-1.448-3.362-.592-7.646.616-12.851 3.625-4.998 2.836-9.365 6.67-12.831 11.264-3.324 4.42-6.003 9.292-7.957 14.47-1.903 5.099-3.237 10.394-3.979 15.788-.724 5.05-1.09 10.146-1.094 15.248-.005 4.685.388 9.362 1.174 13.98.564 3.95 1.957 7.736 4.088 11.105 1.02 1.556 2.381 2.857 3.978 3.805" transform="translate(-364 -786) translate(308.08 786) translate(56.325) translate(159 89) translate(46.964 34.14)"/>
                            <path fill="url(#rvowym84ex)" d="M85.838 36.944c.783 4.619 1.18 9.295 1.184 13.98-.014 5.103-.38 10.198-1.095 15.25-.739 5.397-2.073 10.695-3.978 15.797-1.953 5.179-4.633 10.05-7.957 14.47-3.47 4.589-7.836 8.418-12.831 11.254-5.199 3.015-9.482 4.227-12.851 3.634-3.27-.549-6.159-2.456-7.957-5.252-2.148-3.382-3.552-7.184-4.118-11.154-.786-4.619-1.179-9.296-1.174-13.98.005-5.103.37-10.199 1.094-15.25.742-5.393 2.076-10.688 3.979-15.787 1.954-5.178 4.633-10.05 7.957-14.47 3.466-4.594 7.833-8.428 12.831-11.264 5.199-3.015 9.482-4.224 12.85-3.625 3.27.554 6.156 2.46 7.958 5.253 2.147 3.378 3.547 7.178 4.108 11.144zM71.973 67.252c.159-3.07.235-5.666.228-7.79-.006-2.123-.096-4.62-.268-7.489-.132-2.635-.586-5.245-1.353-7.769-.527-2.003-1.72-3.765-3.382-4.993-1.518-1.018-3.597-.765-6.236.76-2.657 1.52-4.83 3.768-6.266 6.48-1.487 2.794-2.59 5.777-3.283 8.867-.703 3.062-1.142 6.18-1.313 9.317-.159 3.066-.228 5.652-.228 7.78 0 2.126.099 4.623.268 7.499.135 2.636.593 5.245 1.363 7.769.524 1.99 1.697 3.748 3.332 4.993 1.482.998 3.58.779 6.276-.79 2.633-1.523 4.786-3.758 6.217-6.45 1.516-2.8 2.641-5.798 3.342-8.907.705-3.058 1.141-6.173 1.303-9.307" transform="translate(-364 -786) translate(308.08 786) translate(56.325) translate(159 89) translate(46.964 34.14)"/>
                        </g>
                        <g>
                            <path fill="url(#uh2qjx9d7y)" d="M57.059 109.385L22.367 88.932 22.19 27.394 56.882 47.837z" transform="translate(-364 -786) translate(308.08 786) translate(56.325) translate(159 89) translate(0 60.615)"/>
                            <path fill="#F4F5FC" d="M57.217 28.472L22.524 8.019 36.218 0 70.91 20.453z" transform="translate(-364 -786) translate(308.08 786) translate(56.325) translate(159 89) translate(0 60.615)"/>
                            <path fill="url(#2dzzbh7ykz)" d="M70.91 20.453L71.137 101.136 57.059 109.385 56.882 47.837 43.04 70.227 34.692 63.925 57.217 28.472z" transform="translate(-364 -786) translate(308.08 786) translate(56.325) translate(159 89) translate(0 60.615)"/>
                            <path fill="#F4F5FC" d="M43.04 70.227L8.348 49.774 0 43.472 34.692 63.925z" transform="translate(-364 -786) translate(308.08 786) translate(56.325) translate(159 89) translate(0 60.615)"/>
                            <path fill="url(#skmpkxqakA)" d="M34.692 63.925L0 43.472 22.524 8.019 57.217 28.472z" transform="translate(-364 -786) translate(308.08 786) translate(56.325) translate(159 89) translate(0 60.615)"/>
                        </g>
                    </g>
                    <g fill-rule="nonzero">
                        <g fill="url(#tmdtdclv0B)" transform="translate(-364 -786) translate(308.08 786) translate(56.325) translate(166.596 237) translate(8.315 19.505)">
                            <path d="M2.309 3.951l16.794 9.907h-.065l-.477.1v.017l-.419.042h-.665v-.042L.723 4.051h.32l.078.046.054.002c.058 0 .115-.002.173-.006.14-.005.28-.02.419-.042l.476-.1h.066zM0 3.818l.053.023.152.068 16.406 9.694L.205 3.884c.072.035.146.062.222.084l.07.04.185.043 16.795 9.924-.255-.067c-.076-.021-.15-.049-.222-.083l-.001.007.001.001-.003-.001-.103-.043c-.034-.016-.067-.035-.1-.056l-.016-.008-.961-.569L0 3.818zm19.785 9.798c-.222.094-.45.175-.682.242L2.31 3.934c.233-.063.46-.144.682-.242.315-.13.62-.283.912-.46.97-.566 1.864-1.257 2.662-2.054.238-.234.46-.485.674-.735C7.362.3 7.485.15 7.6 0l16.795 9.924c-.115.15-.238.3-.362.443-.213.25-.443.492-.673.735-.798.797-1.693 1.488-2.663 2.055-.293.173-.598.326-.912.46z"/>
                        </g>
                        <path fill="url(#82trxp2g1C)" d="M23.573 28.928L6.779 19.012 13.804 14.886 30.598 24.81z" transform="translate(-364 -786) translate(308.08 786) translate(56.325) translate(166.596 237)"/>
                        <path fill="url(#0na8tm7wpD)" d="M21.848 38.426L5.053 28.502c-.47-.277-.882-.643-1.216-1.078-.55-.746-.944-1.599-1.158-2.506l16.794 9.932c.212.908.607 1.761 1.159 2.506.33.436.744.8 1.216 1.07" transform="translate(-364 -786) translate(308.08 786) translate(56.325) translate(166.596 237)"/>
                        <path fill="url(#n36qhmxzqE)" d="M24.403 22.479L7.609 12.555 15.332 8.028 32.118 17.943z" transform="translate(-364 -786) translate(308.08 786) translate(56.325) translate(166.596 237)"/>
                        <path fill="url(#51rxt5mq6F)" d="M16.795 36.421L0 26.497 0.978 22.412 17.772 32.336z" transform="translate(-364 -786) translate(308.08 786) translate(56.325) translate(166.596 237)"/>
                        <path fill="url(#tp9zgjfk0G)" d="M17.772 32.336L0.978 22.412 2.292 21.644 19.079 31.568z" transform="translate(-364 -786) translate(308.08 786) translate(56.325) translate(166.596 237)"/>
                        <g>
                            <path fill="url(#79tlv69a6H)" d="M16.795 12.371L0 2.448V1.27C-.003.879.022.488.074.1l16.762 9.94c-.046.389-.068.78-.066 1.17v1.178" transform="translate(-364 -786) translate(308.08 786) translate(56.325) translate(166.596 237) translate(2.284 19.196)"/>
                            <path fill="#000" d="M16.836 10.04L.05.1V0l16.802 9.924c.004.033.004.067 0 .1" transform="translate(-364 -786) translate(308.08 786) translate(56.325) translate(166.596 237) translate(2.284 19.196)"/>
                        </g>
                        <path fill="url(#co9iohv83I)" d="M16.86 30.448L0.066 20.533 1.109 16.373 17.904 26.297z" transform="translate(-364 -786) translate(308.08 786) translate(56.325) translate(166.596 237)"/>
                        <path fill="url(#rbmrqk8n3J)" d="M17.904 26.297L1.109 16.373 2.769 15.395 19.564 25.319z" transform="translate(-364 -786) translate(308.08 786) translate(56.325) translate(166.596 237)"/>
                        <g fill="url(#0wilur4dpK)" transform="translate(-364 -786) translate(308.08 786) translate(56.325) translate(166.596 237) translate(2.769)">
                            <path d="M.871 12.455l16.795 9.899c-.107.284-.206.568-.304.835v.025c-.11.329-.209.654-.296.977v.034c-.099.373-.19.749-.271 1.128v-.034L0 15.395c.082-.376.173-.751.271-1.119.09-.334.19-.66.296-.986.099-.284.197-.576.304-.835zm3.057-5.48l16.794 9.899-.403.543-.221.317c-.181.26-.354.518-.518.786-.156.25-.304.5-.452.751-.148.25-.28.502-.419.76v.017c-.131.25-.255.51-.378.769V20.8c-.064.122-.122.247-.172.376l-.173.376-.32.835v-.033L.87 12.43l.32-.835.011.005.137-.348c.058-.135.124-.266.197-.393.124-.259.247-.517.387-.768l.006.003.126-.243c.089-.168.18-.334.278-.495.148-.26.296-.51.452-.76.165-.268.337-.527.518-.786l.222-.292.403-.543zm26.785 2.949v.042c-.23.038-.457.088-.682.15-.295.084-.616.192-.96.326l-.56.217c-.699.303-1.38.649-2.037 1.036-1.199.705-2.315 1.545-3.328 2.506-.189.167-.362.342-.542.518v-.009c-.378.385-.748.786-1.101 1.195v-.034c-.271.318-.534.644-.78.97v.033L3.927 6.95c.254-.326.509-.652.78-.969.353-.41.723-.835 1.101-1.194l.542-.518c1.016-.96 2.135-1.8 3.336-2.506.655-.386 1.333-.73 2.03-1.028l.558-.217c.315-.125.636-.23.962-.318.227-.062.457-.112.69-.15l.427-.05h.082l16.795 9.924h-.518z"/>
                        </g>
                        <path fill="url(#hsoxgpnwdL)" d="M29.013 32.662c1.422-.83 2.677-1.927 3.697-3.233l1.093 3.692c-.655.81-1.38 1.556-2.17 2.23-.92.796-1.91 1.503-2.957 2.114-1.067.665-2.237 1.142-3.46 1.412-.884.197-1.805.157-2.67-.117-.76-.275-1.425-.768-1.914-1.42-.552-.745-.947-1.599-1.159-2.506l-2.678 1.587.977-4.085 1.307-.768V30.39c0-.425.027-.85.082-1.27l-2.276 1.337 1.043-4.177 1.644-.978c.3-1.44.757-2.84 1.364-4.176 1.193-2.62 2.885-4.974 4.979-6.925 1.013-.96 2.129-1.801 3.328-2.506.83-.488 1.698-.904 2.596-1.245.687-.292 1.418-.467 2.161-.518l-1.421 5.104c-.545.022-1.082.14-1.586.351-.652.24-1.282.54-1.882.894-.525.317-1.02.683-1.479 1.094-.488.446-.936.936-1.34 1.462-.418.542-.789 1.121-1.108 1.73-.323.605-.577 1.247-.756 1.912l7.715-4.536-1.002 4.177-7.518 4.41c-.041.21-.063.422-.066.635v1.237c-.014.189-.014.379 0 .568l7.025-4.119-1.002 4.043-5.382 3.183c.121.377.343.712.64.97.31.257.687.414 1.085.45.478.064.963.036 1.43-.083.585-.171 1.144-.424 1.66-.752z" transform="translate(-364 -786) translate(308.08 786) translate(56.325) translate(166.596 237)"/>
                    </g>
                </g>
            </g>
        </g>
    </g>
</svg>
