<svg xmlns="http://www.w3.org/2000/svg" width="187" height="203" viewBox="0 0 187 203">
    <defs>
        <linearGradient id="krjs834ykb" x1="49.995%" x2="49.995%" y1="100%" y2="0%">
            <stop offset="0%" stop-color="#FFF"/>
            <stop offset="50%" stop-color="#FCFDFF"/>
            <stop offset="80%" stop-color="#F4F7FF"/>
            <stop offset="100%" stop-color="#E9EEFF"/>
        </linearGradient>
        <linearGradient id="t4jydenrec" x1="50.013%" x2="50.013%" y1="100.005%" y2="-.003%">
            <stop offset="0%" stop-color="#5D5FAA"/>
            <stop offset="100%" stop-color="#120091"/>
        </linearGradient>
        <linearGradient id="pe1qve84od" x1="25.182%" x2="80.775%" y1="44.31%" y2="57.075%">
            <stop offset="0%" stop-color="#F6AB6E"/>
            <stop offset="100%" stop-color="#FFBFB9"/>
        </linearGradient>
        <linearGradient id="gmu85glnie" x1="-.006%" x2="100.006%" y1="50.03%" y2="50.03%">
            <stop offset="0%" stop-color="#FF5182"/>
            <stop offset="100%" stop-color="#BF3D62"/>
        </linearGradient>
        <linearGradient id="ez8wrj8k6f" x1="-.006%" x2="100.006%" y1="50.03%" y2="50.03%">
            <stop offset="0%" stop-color="#FF5182"/>
            <stop offset="100%" stop-color="#BF3D62"/>
        </linearGradient>
        <linearGradient id="7ttse0a5tg" x1="50%" x2="50%" y1="0%" y2="100%">
            <stop offset="0%" stop-color="#98A0D7"/>
            <stop offset="100%" stop-color="#FFF"/>
        </linearGradient>
        <linearGradient id="m7tf9l6ynh" x1="50%" x2="50%" y1="0%" y2="100%">
            <stop offset="0%" stop-color="#98A0D7"/>
            <stop offset="100%" stop-color="#FFF"/>
        </linearGradient>
        <linearGradient id="99e8puclui" x1="50%" x2="50%" y1="0%" y2="100%">
            <stop offset="0%" stop-color="#98A0D7"/>
            <stop offset="100%" stop-color="#FFF"/>
        </linearGradient>
        <linearGradient id="3y3r9njmdj" x1="50%" x2="50%" y1="0%" y2="100%">
            <stop offset="0%" stop-color="#98A0D7"/>
            <stop offset="100%" stop-color="#FFF"/>
        </linearGradient>
        <linearGradient id="frwjcuolyk" x1="50%" x2="50%" y1="0%" y2="100%">
            <stop offset="0%" stop-color="#98A0D7"/>
            <stop offset="100%" stop-color="#FFF"/>
        </linearGradient>
        <linearGradient id="f2er9ey1zl" x1="-.117%" x2="100.008%" y1="50.014%" y2="50.014%">
            <stop offset="20%" stop-color="#E0E6FD"/>
            <stop offset="52%" stop-color="#FFF"/>
            <stop offset="73%" stop-color="#FCFDFF"/>
            <stop offset="85%" stop-color="#F4F6FE"/>
            <stop offset="95%" stop-color="#E6EBFE"/>
            <stop offset="100%" stop-color="#DBE2FD"/>
        </linearGradient>
        <filter id="0uxjt70pza" width="100%" height="100%" x="0%" y="0%" filterUnits="objectBoundingBox">
            <feGaussianBlur in="SourceGraphic"/>
        </filter>
    </defs>
    <g fill="none" fill-rule="evenodd">
        <g>
            <g>
                <g transform="translate(-747 -3090) translate(237 2625) translate(510 465)">
                    <path fill="#0246AF" d="M183.59 144.15c4.524 2.621 4.55 6.86.056 9.478l-81.392 47.406c-4.495 2.621-11.807 2.621-16.344 0L4.004 153.631c-4.524-2.62-4.55-6.863-.055-9.484L85.34 96.744c4.494-2.621 11.807-2.621 16.344 0l81.905 47.406z" filter="url(#0uxjt70pza)" opacity=".05"/>
                    <path fill="url(#krjs834ykb)" d="M183.29 128.447c4.53 2.621 4.556 6.88.055 9.501l-81.516 47.475c-4.502 2.621-11.827 2.621-16.344 0L3.439 137.942c-4.53-2.621-4.554-6.88-.053-9.501l81.497-47.475c4.501-2.621 11.823-2.621 16.344 0l82.062 47.481z"/>
                    <path fill="url(#t4jydenrec)" d="M53.538 130.376l37.289 21.675c1.805.929 3.947.929 5.753 0l37.534-21.675c1.26-.725 1.524-1.808.806-2.683l-.176-.19c-.19-.18-.4-.338-.63-.465l-37.27-21.676c-1.807-.93-3.952-.93-5.76 0l-37.528 21.676c-.227.13-.438.286-.629.466-.068.062-.13.13-.189.201-.711.857-.44 1.946.8 2.67z" opacity=".8"/>
                    <path fill="url(#pe1qve84od)" d="M62.331 102.963l29.15 16.952c1.415.718 3.087.718 4.5 0l29.346-16.952c.982-.567 1.19-1.411.63-2.097-.04-.053-.084-.102-.133-.145-.143-.141-.304-.264-.478-.366L96.183 83.41c-1.41-.724-3.083-.724-4.494 0l-29.345 16.946c-.176.102-.339.225-.485.366-.053.048-.102.1-.145.157-.56.68-.352 1.518.617 2.085z" opacity=".21"/>
                    <path fill="url(#gmu85glnie)" d="M70.552 82.074L92.098 94.6c1.043.534 2.28.534 3.324 0l21.684-12.52c.724-.422.875-1.045.46-1.555 0-.038-.063-.07-.094-.107-.109-.103-.23-.192-.36-.265l-21.54-12.525c-1.043-.535-2.28-.535-3.323 0L70.564 80.147c-.127.079-.247.17-.358.27-.04.038-.075.078-.107.12-.41.504-.265 1.121.453 1.537z" opacity=".4"/>
                    <path fill="url(#ez8wrj8k6f)" d="M75.317 64.554l17.134 9.963c.829.428 1.814.428 2.643 0l17.247-9.956c.58-.334.705-.832.372-1.26-.024-.032-.052-.062-.082-.088-.085-.08-.177-.153-.277-.214l-17.14-9.963c-.83-.422-1.813-.422-2.644 0l-17.253 9.988c-.104.058-.2.13-.283.214l-.089.095c-.32.403-.201.894.372 1.221z" opacity=".8"/>
                    <path fill="url(#7ttse0a5tg)" d="M130.08 88.346c-.474 0-.928-.188-1.262-.524-.335-.336-.521-.79-.52-1.264V55.63c-.04-.663.292-1.294.86-1.637.569-.344 1.28-.344 1.849 0 .568.343.9.974.86 1.637v30.927c0 .987-.8 1.788-1.787 1.788zM114.677 34.61c-.98 0-1.775-.79-1.782-1.77V1.895c-.039-.664.292-1.294.86-1.637.569-.344 1.28-.344 1.85 0 .568.343.899.973.86 1.637V32.84c-.01.98-.808 1.77-1.788 1.77zM65.164 61.028c-.474 0-.928-.189-1.262-.524-.334-.336-.521-.79-.52-1.265V28.312c-.04-.663.292-1.293.86-1.637.569-.343 1.28-.343 1.85 0 .567.344.899.974.86 1.637V59.24c0 .988-.801 1.789-1.788 1.789z"/>
                    <ellipse cx="52.354" cy="68.333" fill="url(#m7tf9l6ynh)" rx="2.354" ry="2.355"/>
                    <ellipse cx="40.895" cy="97.864" fill="url(#99e8puclui)" opacity=".9" rx="5.3" ry="5.302"/>
                    <ellipse cx="114.895" cy="125.864" fill="url(#99e8puclui)" opacity=".9" rx="5.3" ry="5.302"/>
                    <ellipse cx="136.594" cy="107.561" fill="url(#3y3r9njmdj)" opacity=".9" rx="2.999" ry="3"/>
                    <ellipse cx="101.597" cy="40.026" fill="url(#frwjcuolyk)" rx="3.745" ry="3.747"/>
                    <ellipse cx="71.66" cy="133.071" fill="url(#frwjcuolyk)" rx="3.745" ry="3.747"/>
                    <path fill="url(#f2er9ey1zl)" d="M186.646 132.041v.082c0 .026-.035.144-.052.213.451 1.992-.624 4.076-3.249 5.606l-81.516 47.481c-4.502 2.621-11.827 2.621-16.344 0L3.439 137.942c-2.285-1.31-3.423-3.027-3.439-4.744v1.965c0 1.73 1.134 3.463 3.413 4.784l82.046 47.478c.27.157.555.305.846.442l.3.131c.174.079.328.158.52.226l.095.036.2.073c.232.085.464.167.703.242l.245.075.163.053.294.072c.239.062.478.121.72.177l.192.046c.095.02.193.032.288.049.203.04.409.075.615.108l.245.042c.088 0 .18.02.271.03.193.026.383.046.579.065l.274.03h.258c.197 0 .39.023.586.03l.294.016h1.382c.262 0 .523-.033.782-.053l.327-.023.147-.016.235-.03c.268-.032.536-.068.8-.11l.197-.034.095-.016c.127-.023.248-.052.372-.079.213-.042.429-.085.638-.137.153-.036.304-.082.457-.121.154-.04.4-.108.595-.17l.128-.037c.238-.078.47-.16.703-.249l.098-.042c.251-.099.5-.203.738-.328l.213-.102c.268-.127.53-.265.781-.409l81.504-47.472.14-.082c.21-.124.405-.255.592-.386l.095-.07c.209-.15.408-.307.594-.47l.082-.073.101-.088c.15-.138.288-.279.416-.42.029-.03.052-.059.078-.088.075-.089.154-.177.226-.266.072-.088.1-.14.153-.213.02-.023.04-.049.056-.075.091-.134.18-.269.255-.403.026-.046.046-.092.068-.134l.046-.089c.072-.142.136-.287.193-.435 0-.036.023-.072.036-.109.01-.026.019-.054.026-.081.05-.152.092-.306.124-.462 0-.03 0-.063.017-.092-.002-.027-.002-.055 0-.082.025-.163.04-.327.045-.491V131.449c.003.198-.009.396-.036.592z"/>
                    <path fill="#858585" d="M40.019 101.278L40.019 101.281 40.019 101.278z"/>
                </g>
            </g>
        </g>
    </g>
</svg>