<svg xmlns="http://www.w3.org/2000/svg" width="187" height="164" viewBox="0 0 187 164">
    <defs>
        <linearGradient id="slmc205tjb" x1="49.995%" x2="49.995%" y1="100%" y2="0%">
            <stop offset="0%" stop-color="#FFF"/>
            <stop offset="50%" stop-color="#FCFDFF"/>
            <stop offset="80%" stop-color="#F4F7FF"/>
            <stop offset="100%" stop-color="#E9EEFF"/>
        </linearGradient>
        <linearGradient id="zfvolkytac" x1="50.013%" x2="50.013%" y1="100.005%" y2="-.003%">
            <stop offset="0%" stop-color="#5D5FAA"/>
            <stop offset="100%" stop-color="#120091"/>
        </linearGradient>
        <linearGradient id="widexgsqyd" x1="50.013%" x2="50.013%" y1="100.005%" y2="-.003%">
            <stop offset="0%" stop-color="#5D5FAA"/>
            <stop offset="100%" stop-color="#120091"/>
        </linearGradient>
        <linearGradient id="6ull3g2m1e" x1="50.013%" x2="50.013%" y1="100.005%" y2="-.003%">
            <stop offset="0%" stop-color="#5D5FAA"/>
            <stop offset="100%" stop-color="#120091"/>
        </linearGradient>
        <linearGradient id="c8dgeoos1f" x1="68.424%" x2="32.08%" y1="86.271%" y2="13.729%">
            <stop offset="0%" stop-color="#2C0E65"/>
            <stop offset="100%" stop-color="#0A0E3E"/>
        </linearGradient>
        <linearGradient id="8ubp69f6wg" x1="-.006%" x2="100.006%" y1="50.03%" y2="50.03%">
            <stop offset="0%" stop-color="#FF5182"/>
            <stop offset="100%" stop-color="#BF3D62"/>
        </linearGradient>
        <linearGradient id="fy8v7mrr7h" x1="0%" x2="100%" y1="50%" y2="50%">
            <stop offset="12%" stop-color="#2E90E1"/>
            <stop offset="100%" stop-color="#69ECDA"/>
        </linearGradient>
        <linearGradient id="my843o9iii" x1="0%" x2="100%" y1="50%" y2="50%">
            <stop offset="0%" stop-color="#5C90FE"/>
            <stop offset="100%" stop-color="#2E42EB"/>
        </linearGradient>
        <linearGradient id="bufaf70ykj" x1="12.229%" x2="87.729%" y1="32.212%" y2="67.743%">
            <stop offset="0%" stop-color="#FFF"/>
            <stop offset="50%" stop-color="#FCFDFF"/>
            <stop offset="80%" stop-color="#F4F7FF"/>
            <stop offset="100%" stop-color="#E9EEFF"/>
        </linearGradient>
        <linearGradient id="gep0ql3zck" x1="12.269%" x2="87.726%" y1="32.257%" y2="67.74%">
            <stop offset="0%" stop-color="#FFF"/>
            <stop offset="50%" stop-color="#FCFDFF"/>
            <stop offset="80%" stop-color="#F4F7FF"/>
            <stop offset="100%" stop-color="#E9EEFF"/>
        </linearGradient>
        <linearGradient id="234zo29kgl" x1="9.932%" x2="85.368%" y1="32.324%" y2="68.151%">
            <stop offset="0%" stop-color="#FFF"/>
            <stop offset="50%" stop-color="#FCFDFF"/>
            <stop offset="80%" stop-color="#F4F7FF"/>
            <stop offset="100%" stop-color="#E9EEFF"/>
        </linearGradient>
        <linearGradient id="cshrqpp3jm" x1="12.218%" x2="87.734%" y1="32.295%" y2="67.806%">
            <stop offset="0%" stop-color="#FFF"/>
            <stop offset="50%" stop-color="#FCFDFF"/>
            <stop offset="80%" stop-color="#F4F7FF"/>
            <stop offset="100%" stop-color="#E9EEFF"/>
        </linearGradient>
        <linearGradient id="2r7noescmn" x1="12.324%" x2="87.78%" y1="32.297%" y2="67.78%">
            <stop offset="0%" stop-color="#FFF"/>
            <stop offset="50%" stop-color="#FCFDFF"/>
            <stop offset="80%" stop-color="#F4F7FF"/>
            <stop offset="100%" stop-color="#E9EEFF"/>
        </linearGradient>
        <linearGradient id="7wy47d2kpo" x1="-.018%" x2="100%" y1="50.011%" y2="50.011%">
            <stop offset="0%" stop-color="#E3E7FF"/>
            <stop offset="21%" stop-color="#E6E3F8"/>
            <stop offset="52%" stop-color="#EDD7E6"/>
            <stop offset="88%" stop-color="#FAC3C7"/>
            <stop offset="100%" stop-color="#FBB"/>
        </linearGradient>
        <linearGradient id="v77h0lkezp" x1=".034%" x2="99.993%" y1="50.022%" y2="50.022%">
            <stop offset="0%" stop-color="#FF5182"/>
            <stop offset="100%" stop-color="#BF3D62"/>
        </linearGradient>
        <linearGradient id="svcf2l9d3q" x1="0%" x2="99.979%" y1="50%" y2="50%">
            <stop offset="0%" stop-color="#FF5182"/>
            <stop offset="100%" stop-color="#BF3D62"/>
        </linearGradient>
        <linearGradient id="4h25fr1nqr" x1=".193%" x2="100%" y1="50.049%" y2="50.049%">
            <stop offset="0%" stop-color="#E3E7FF"/>
            <stop offset="21%" stop-color="#E6E3F8"/>
            <stop offset="52%" stop-color="#EDD7E6"/>
            <stop offset="88%" stop-color="#FAC3C7"/>
            <stop offset="100%" stop-color="#FBB"/>
        </linearGradient>
        <linearGradient id="w15wnfzges" x1="-.005%" x2="99.993%" y1="50.004%" y2="50.004%">
            <stop offset="0%" stop-color="#FF5182"/>
            <stop offset="100%" stop-color="#BF3D62"/>
        </linearGradient>
        <linearGradient id="x0jqjw6z5t" x1=".088%" x2="100.037%" y1="50%" y2="50%">
            <stop offset="0%" stop-color="#FF5182"/>
            <stop offset="100%" stop-color="#BF3D62"/>
        </linearGradient>
        <linearGradient id="y0ewjzfmuu" x1="-.027%" x2="99.996%" y1="50.014%" y2="50.014%">
            <stop offset="0%" stop-color="#E3E7FF"/>
            <stop offset="21%" stop-color="#E6E3F8"/>
            <stop offset="52%" stop-color="#EDD7E6"/>
            <stop offset="88%" stop-color="#FAC3C7"/>
            <stop offset="100%" stop-color="#FBB"/>
        </linearGradient>
        <linearGradient id="jfywh8liqv" x1="-.002%" x2="99.976%" y1="49.997%" y2="49.997%">
            <stop offset="0%" stop-color="#190955"/>
            <stop offset="100%" stop-color="#8C1BAB"/>
        </linearGradient>
        <linearGradient id="v1gjybjwtw" x1=".011%" x2="100.036%" y1="50.006%" y2="50.006%">
            <stop offset="0%" stop-color="#FF5182"/>
            <stop offset="100%" stop-color="#BF3D62"/>
        </linearGradient>
        <linearGradient id="6ssricr3hx" x1="-.006%" x2="100.006%" y1="50.03%" y2="50.03%">
            <stop offset="0%" stop-color="#FF5182"/>
            <stop offset="100%" stop-color="#BF3D62"/>
        </linearGradient>
        <linearGradient id="ml8g6rgb8y" x1="-.117%" x2="100.008%" y1="50.014%" y2="50.014%">
            <stop offset="20%" stop-color="#E0E6FD"/>
            <stop offset="52%" stop-color="#FFF"/>
            <stop offset="73%" stop-color="#FCFDFF"/>
            <stop offset="85%" stop-color="#F4F6FE"/>
            <stop offset="95%" stop-color="#E6EBFE"/>
            <stop offset="100%" stop-color="#DBE2FD"/>
        </linearGradient>
        <filter id="8iwrtmctoa" width="100%" height="100%" x="0%" y="0%" filterUnits="objectBoundingBox">
            <feGaussianBlur in="SourceGraphic"/>
        </filter>
    </defs>
    <g fill="none" fill-rule="evenodd">
        <g>
            <g>
                <g>
                    <path fill="#0246AF" d="M183.59 105.15c4.524 2.621 4.55 6.86.056 9.478l-81.392 47.406c-4.495 2.621-11.807 2.621-16.344 0L4.004 114.631c-4.524-2.62-4.55-6.863-.055-9.484L85.34 57.744c4.494-2.621 11.807-2.621 16.344 0l81.905 47.406z" filter="url(#8iwrtmctoa)" opacity=".05" transform="translate(-1105 -3129) translate(237 2625) translate(868 504)"/>
                    <path fill="url(#slmc205tjb)" d="M183.29 89.447c4.53 2.621 4.556 6.88.055 9.501l-81.516 47.475c-4.502 2.621-11.827 2.621-16.344 0L3.439 98.942c-4.53-2.621-4.554-6.88-.053-9.501l81.497-47.475c4.501-2.621 11.823-2.621 16.344 0l82.062 47.481z" transform="translate(-1105 -3129) translate(237 2625) translate(868 504)"/>
                    <g>
                        <path fill="url(#zfvolkytac)" d="M50.959.365c1.48-.849 2.687-.168 2.69 1.53l.159 55.334c-.1 1.878-1.093 3.594-2.673 4.62L2.849 89.656c-1.484.853-2.687.168-2.69-1.53L0 32.793c.1-1.876 1.094-3.592 2.673-4.615L50.96.365z" opacity=".2" transform="translate(-1105 -3129) translate(237 2625) translate(868 504) translate(45)"/>
                        <path fill="url(#widexgsqyd)" d="M56.948 3.862c1.48-.852 2.695-.168 2.695 1.52l.158 55.33c-.097 1.881-1.09 3.602-2.673 4.63L8.835 93.143c-1.48.857-2.684.172-2.691-1.526l-.158-55.334c.1-1.878 1.095-3.595 2.677-4.62l48.285-27.8z" opacity=".4" transform="translate(-1105 -3129) translate(237 2625) translate(868 504) translate(45)"/>
                        <g fill="url(#6ull3g2m1e)" opacity=".6" transform="translate(-1105 -3129) translate(237 2625) translate(868 504) translate(45) translate(11.975 6.984)">
                            <path d="M50.959.365c1.48-.849 2.687-.168 2.69 1.53l.159 55.334c-.1 1.878-1.093 3.594-2.673 4.62l-48.286 27.8c-1.484.853-2.687.169-2.69-1.53L0 32.797c.097-1.877 1.09-3.594 2.673-4.615L50.96.365z"/>
                        </g>
                        <g fill="url(#c8dgeoos1f)" opacity=".4" transform="translate(-1105 -3129) translate(237 2625) translate(868 504) translate(45) translate(26.081 38.007)">
                            <path d="M28.693.3c3.593-2.067 9.615 7.285 13.208 5.214v6.041L0 35.687v-3.583c3.593-2.067 3.593-9.172 7.186-11.24 3.593-2.067 3.593-.154 7.186-2.221 3.593-2.068 3.593-8.546 7.186-10.614 3.593-2.067 3.539-5.657 7.135-7.728z"/>
                        </g>
                        <path fill="url(#8ubp69f6wg)" d="M53.977 41.736c1.746-1.003 1.76 3.132 3.506 2.128 1.747-1.003 1.761 3.637 3.507 2.63 1.746-1.006 1.757 2.509 3.503 1.498 1.746-1.01 1.725-8.6 3.475-9.592L68 49.565 26.081 73.701v-5.375c1.746-1.003 1.746-.899 3.492-1.902 1.747-1.003 1.743-2.4 3.49-3.408 1.745-1.007 1.727-7.883 3.47-8.882 1.743-1 1.75-1.075 3.496-2.082s1.739-2.96 3.485-3.967c1.746-1.006 1.771 7.915 3.518 6.909 1.746-1.007 1.746-1.774 3.492-2.777 1.746-1.004 1.71-9.474 3.453-10.48z" transform="translate(-1105 -3129) translate(237 2625) translate(868 504) translate(45)"/>
                        <path fill="#FFF" d="M44.937 67.972c.719-.416 1.3-.083 1.304.738-.05.91-.532 1.74-1.297 2.24L27.227 81.146c-.718.416-1.3.082-1.3-.738.045-.91.526-1.742 1.293-2.236l17.717-10.201zM55.888 23.154c.719-.416 1.3-.082 1.304.738-.05.91-.532 1.741-1.297 2.24L38.18 36.329c-.719.416-1.301.083-1.301-.738.047-.909.528-1.74 1.293-2.236l17.717-10.201zM39.415 77.815c.718-.413 1.3-.083 1.3.741-.046.91-.527 1.74-1.293 2.236l-12.116 6.973c-.718.412-1.3.082-1.304-.742.051-.907.531-1.737 1.294-2.236l12.119-6.972z" transform="translate(-1105 -3129) translate(237 2625) translate(868 504) translate(45)"/>
                    </g>
                    <g>
                        <g fill="#100344" opacity=".2" transform="translate(-1105 -3129) translate(237 2625) translate(868 504) translate(102 21) translate(14.621 73.696)">
                            <ellipse cx="10.689" cy="6.152" rx="10.672" ry="6.122" transform="rotate(-.16 10.69 6.152)"/>
                        </g>
                        <path fill="#000" d="M32.214 79.09c.14.453.121.94-.053 1.383-.19.448-1.313.305-2.95-.646-.788-.463-1.652-.978-1.741-1.487-.185-1.036.874-.79 1.8-.46 1.255.444 2.291 1.151 2.944 1.21zM24.141 81.396c.225.427.258.929.09 1.38-.191.449-1.388.47-3.022-.493-.787-.463-1.538-.844-1.652-1.347-.264-1.143 1.021-.786 1.803-.475 1.237.49 2.132.877 2.781.935z" transform="translate(-1105 -3129) translate(237 2625) translate(868 504) translate(102 21)"/>
                        <path fill="url(#fy8v7mrr7h)" d="M0 18.459L7.424 29.104 13.859 25.029 6.587 14.366 4.984 15.362 1.914 17.27z" transform="translate(-1105 -3129) translate(237 2625) translate(868 504) translate(102 21)"/>
                        <path fill="url(#my843o9iii)" d="M1.914 17.27L2.858 18.623 5.898 16.7 4.984 15.362z" transform="translate(-1105 -3129) translate(237 2625) translate(868 504) translate(102 21)"/>
                        <path fill="url(#bufaf70ykj)" d="M3.189 18.894L7.553 18.913 7.554 19.212 3.19 19.194z" transform="translate(-1105 -3129) translate(237 2625) translate(868 504) translate(102 21) rotate(-31.71 5.372 19.053)"/>
                        <path fill="url(#gep0ql3zck)" d="M3.798 19.792L8.161 19.811 8.163 20.11 3.799 20.092z" transform="translate(-1105 -3129) translate(237 2625) translate(868 504) translate(102 21) rotate(-31.69 5.98 19.951)"/>
                        <path fill="url(#234zo29kgl)" d="M4.405 20.696L8.768 20.714 8.769 21.013 4.406 20.995z" transform="translate(-1105 -3129) translate(237 2625) translate(868 504) translate(102 21) rotate(-31.69 6.587 20.854)"/>
                        <path fill="url(#cshrqpp3jm)" d="M5.009 21.596L9.373 21.615 9.374 21.914 5.011 21.896z" transform="translate(-1105 -3129) translate(237 2625) translate(868 504) translate(102 21) rotate(-31.69 7.192 21.755)"/>
                        <path fill="url(#2r7noescmn)" d="M5.618 22.498L9.982 22.516 9.983 22.816 5.62 22.797z" transform="translate(-1105 -3129) translate(237 2625) translate(868 504) translate(102 21) rotate(-31.69 7.8 22.657)"/>
                        <path fill="url(#7wy47d2kpo)" d="M13.918 21.863s-1.495-1.597-2.427-1.332c-.794.222-2.55-.61-2.622-.095-.083.586 2.246.22 2.108 1.674-.099 1.027 1.993 1.054 2.56 1.094l.38-1.341z" transform="translate(-1105 -3129) translate(237 2625) translate(868 504) translate(102 21)"/>
                        <path fill="url(#v77h0lkezp)" d="M30.17 13.62c.681.107 1.285.49 1.668 1.057 1.474 1.999-4.765 9.27-6.85 10.102-2.284.914-11.605-1.39-11.605-1.39-.25-.66-.228-1.39.058-2.035 0 0 9.602 1.627 10.722 1.088 1.12-.54 4.19-6.674 6.008-8.823z" transform="translate(-1105 -3129) translate(237 2625) translate(868 504) translate(102 21)"/>
                        <path fill="#0B0830" d="M17.487 19.781c.043.896.132 2 .249 3.234.018.173.028.341.04.509.267 2.895.615 6.4.775 9.554.086 1.642.114 3.187.055 4.52-.163 3.43-1.39 8.374.044 17.413.704 4.446.978 7.731 2.005 11.31 1.028 3.577 1.314 14.774 1.314 14.774 1.095 1.106 2.172.304 2.172.304s.966-10.59 1.172-12.552c.206-1.963-.338-4.182-.544-5.992-.206-1.81.544-10.483.544-10.483.262 1.39 1.477 6.927 2.597 10.334.873 2.651 2.384 10.057 2.003 15.847 1.11 1.173 2.282.524 2.282.524s1.705-12.57.44-17.145c-1.603-5.79.074-14.156-.44-19.185-.406-3.93-1.363-6.878-1.326-9.005.05-2.014 3.274-19.72-.809-20.114h-.157c-.411-.021-.824.003-1.23.073-2.674.387-6.23 2.246-8.614 3.862-.176.122-.354.24-.523.353-1.185.793-2.068 1.506-2.05 1.865z" transform="translate(-1105 -3129) translate(237 2625) translate(868 504) translate(102 21)"/>
                        <path fill="url(#svcf2l9d3q)" d="M17.736 23.015c.018.173.028.341.04.509.267 2.895.615 6.4.775 9.554 2.787-.549 2.255-9.143 2.255-9.143-.992-.4-2.02-.708-3.07-.92z" transform="translate(-1105 -3129) translate(237 2625) translate(868 504) translate(102 21)"/>
                        <path fill="url(#4h25fr1nqr)" d="M7.264 26.382s-.997-2.37-1.286-1.92c-.459.726-1.468.436-2.154-.512-.686-.948-1.91.936-.126 2.286 1.624 1.219 2.341 1.04 2.787 1.277l.779-1.13z" transform="translate(-1105 -3129) translate(237 2625) translate(868 504) translate(102 21)"/>
                        <path fill="url(#w15wnfzges)" d="M17.674 19.47s2.834.528 3.117 3.526c.215 2.277-2.234 11.773-4.406 12.477-1.846.61-10.032-7.655-10.032-7.655-.09-.736.242-1.46.861-1.875 0 0 6.569 4.623 8 5.4.734-1.17.648-9.934 2.46-11.873z" transform="translate(-1105 -3129) translate(237 2625) translate(868 504) translate(102 21)"/>
                        <path fill="url(#x0jqjw6z5t)" d="M22.929 23.11c.212 2.538.043 5.094-.502 7.584 0 0 4.646-.52 6.956-2.133.616-1.91 1.437-13.104-.726-14.896-2.673.387-6.23 2.246-8.614 3.861-.175.122-.354.24-.523.354 1.203.874 3.197 2.69 3.409 5.23z" transform="translate(-1105 -3129) translate(237 2625) translate(868 504) translate(102 21)"/>
                        <path fill="url(#y0ewjzfmuu)" d="M22.621 15.96s4.166.707 5.089-2.115c0 0-.508-2.015-.357-3.328.15-1.314 2.095-5.108-.766-7.03-2.861-1.924-7.205-.507-8.014 1.264-.624 1.455-.624 3.098 0 4.553.409.86.153 2.02.664 2.627.51.606 1.083 2.605 1.71 2.605.628 0 1.647-.38 1.674 1.424z" transform="translate(-1105 -3129) translate(237 2625) translate(868 504) translate(102 21)"/>
                        <path fill="url(#jfywh8liqv)" d="M23.332 11.486s.723-.037 1.707 1.079c.52.59 1.892.286 2.415 0 0 0 .388-1.091.683-1.911.296-.82.973-2.8.308-4.288-.664-1.487-4.369-5.33-7.814-3.264-3.446 2.066-2.907 3.383-2.907 3.383s-.219 1.219 1.538 1.956c.877.37 1.375 2.024 1.79 2.633.223-.023.44-.084.643-.18-.135-.914.056-1.502.677-1.59 1.148-.159.96 2.182.96 2.182z" transform="translate(-1105 -3129) translate(237 2625) translate(868 504) translate(102 21)"/>
                        <path fill="url(#v1gjybjwtw)" d="M19.268 8.045s-4.962-1.362-4.107-3.41c.775-1.856 2.833-2.066 4.882-1.253 2.05.814-.775 4.663-.775 4.663z" transform="translate(-1105 -3129) translate(237 2625) translate(868 504) translate(102 21)"/>
                        <path fill="url(#6ssricr3hx)" d="M18.102 7.128c1.172 1.32 4.255 2.471 7.11 2.346 2.855-.124 4.873-1.09 3.94-5.135C28.36.893 24.523-.058 22.72.003c-1.695.06-3.75.954-4.615 2.563-.548 1.011-1.015 3.419-.003 4.562z" transform="translate(-1105 -3129) translate(237 2625) translate(868 504) translate(102 21)"/>
                    </g>
                    <path fill="url(#ml8g6rgb8y)" d="M186.646 93.041v.082c0 .026-.035.144-.052.213.451 1.992-.624 4.076-3.249 5.606l-81.516 47.481c-4.502 2.621-11.827 2.621-16.344 0L3.439 98.942C1.154 97.632.016 95.915 0 94.198v1.965c0 1.73 1.134 3.463 3.413 4.784l82.046 47.478c.27.157.555.305.846.442l.3.131c.174.079.328.158.52.226l.095.036.2.073c.232.085.464.167.703.242l.245.075.163.053.294.072c.239.062.478.121.72.177l.192.046c.095.02.193.032.288.049.203.04.409.075.615.108l.245.042c.088 0 .18.02.271.03.193.026.383.046.579.065l.274.03h.258c.197 0 .39.023.586.03l.294.016h1.382c.262 0 .523-.033.782-.053l.327-.023.147-.016.235-.03c.268-.032.536-.068.8-.11l.197-.034.095-.016c.127-.023.248-.052.372-.079.213-.042.429-.085.638-.137.153-.036.304-.082.457-.121.154-.04.4-.108.595-.17l.128-.037c.238-.078.47-.16.703-.249l.098-.042c.251-.099.5-.203.738-.328l.213-.102c.268-.127.53-.265.781-.409l81.504-47.472.14-.082c.21-.124.405-.255.592-.386l.095-.07c.209-.15.408-.307.594-.47l.082-.073.101-.088c.15-.138.288-.279.416-.42.029-.03.052-.059.078-.088.075-.089.154-.177.226-.266.072-.088.1-.14.153-.213.02-.023.04-.049.056-.075.091-.134.18-.269.255-.403.026-.046.046-.092.068-.134l.046-.089c.072-.142.136-.287.193-.435 0-.036.023-.072.036-.109.01-.026.019-.054.026-.081.05-.152.092-.306.124-.462 0-.03 0-.063.017-.092-.002-.027-.002-.055 0-.082.025-.163.04-.327.045-.491V92.449c.003.198-.009.396-.036.592z" transform="translate(-1105 -3129) translate(237 2625) translate(868 504)"/>
                    <path fill="#858585" d="M40.019 62.278L40.019 62.281 40.019 62.278z" transform="translate(-1105 -3129) translate(237 2625) translate(868 504)"/>
                </g>
            </g>
        </g>
    </g>
</svg>
